<svg xmlns="http://www.w3.org/2000/svg" xmlns:xlink="http://www.w3.org/1999/xlink" width="500" zoomAndPan="magnify" viewBox="0 0 375 374.999991" height="500" preserveAspectRatio="xMidYMid meet" version="1.0"><defs><g/><clipPath id="id1"><path d="M 139.226562 53.039062 L 235.976562 53.039062 L 235.976562 141 L 139.226562 141 Z M 139.226562 53.039062 " clip-rule="nonzero"/></clipPath><clipPath id="id2"><path d="M 149.246094 225.34375 L 225.746094 225.34375 L 225.746094 266.59375 L 149.246094 266.59375 Z M 149.246094 225.34375 " clip-rule="nonzero"/></clipPath></defs><g clip-path="url(#id1)"><path fill="rgb(0%, 0%, 0%)" d="M 220.929688 110.992188 C 220.929688 110.984375 220.929688 110.976562 220.929688 110.976562 C 221.171875 107.996094 223.019531 81.320312 224.164062 71.042969 C 225.574219 58.296875 218.53125 53.738281 204.925781 53.867188 C 193.78125 53.972656 182.605469 53.519531 171.46875 53.792969 C 160.929688 54.058594 151.625 54.933594 152.152344 67.339844 C 152.757812 81.726562 154.535156 96.167969 155.71875 110.539062 C 155.707031 110.546875 155.691406 110.546875 155.675781 110.554688 C 156.050781 112.789062 156.4375 115.019531 156.820312 117.25 C 158.816406 120.71875 164.378906 122.992188 168.113281 124.253906 C 173.710938 126.15625 179.597656 127.007812 185.53125 127.457031 C 177.988281 127.585938 170.1875 127.117188 163.117188 124.519531 C 160.128906 123.421875 154.113281 121.054688 153.46875 117.75 C 153.078125 115.746094 152.6875 113.742188 152.296875 111.738281 C 144.210938 114.839844 139.226562 118.996094 139.226562 123.585938 C 139.226562 133.183594 160.898438 140.964844 187.636719 140.964844 C 214.367188 140.964844 236.042969 133.183594 236.042969 123.585938 C 236.042969 118.625 230.222656 114.15625 220.929688 110.992188 Z M 164.734375 61.144531 C 172.664062 61.121094 180.699219 61.835938 188.613281 61.492188 C 196.546875 61.507812 204.511719 60.996094 212.429688 61.144531 C 197.972656 66.34375 179.207031 66.601562 164.734375 61.144531 Z M 164.734375 61.144531 " fill-opacity="1" fill-rule="nonzero"/></g><g fill="rgb(0%, 0%, 0%)" fill-opacity="1"><g transform="translate(99.556111, 269.547583)"><g><path d="M 7.609375 9.71875 L 7 8.921875 L 12.515625 4.59375 L 7.375 -1.953125 L 1.859375 2.375 L 1.25 1.59375 L 12.46875 -7.203125 L 13.078125 -6.421875 L 8.09375 -2.515625 L 13.234375 4.03125 L 18.21875 0.125 L 18.828125 0.921875 Z M 7.609375 9.71875 "/></g></g></g><g fill="rgb(0%, 0%, 0%)" fill-opacity="1"><g transform="translate(109.081586, 281.47517)"><g><path d="M 9.859375 2.609375 L 5.734375 -1.4375 L 0.796875 0.78125 L 0 0 L 14.109375 -6.234375 L 14.546875 -5.796875 L 8.578125 8.375 L 7.765625 7.59375 Z M 6.609375 -1.828125 L 10.25 1.734375 L 12.46875 -3.28125 C 12.625 -3.695312 12.875 -4.238281 13.21875 -4.90625 C 12.65625 -4.582031 12.125 -4.3125 11.625 -4.09375 Z M 6.609375 -1.828125 "/></g></g></g><g fill="rgb(0%, 0%, 0%)" fill-opacity="1"><g transform="translate(118.262206, 290.322281)"><g><path d="M 4.53125 3.515625 L 3.734375 2.90625 L 11.90625 -7.609375 L 8.25 -10.453125 L 8.828125 -11.1875 L 16.921875 -4.890625 L 16.34375 -4.15625 L 12.703125 -7 Z M 4.53125 3.515625 "/></g></g></g><g fill="rgb(0%, 0%, 0%)" fill-opacity="1"><g transform="translate(131.806055, 300.35327)"><g><path d="M 2.75 -2.640625 C 3.164062 -3.429688 3.734375 -3.992188 4.453125 -4.328125 C 5.171875 -4.671875 6.269531 -4.847656 7.75 -4.859375 L 7.484375 -5.90625 C 7.316406 -6.519531 7.242188 -7.066406 7.265625 -7.546875 C 7.285156 -8.035156 7.410156 -8.5 7.640625 -8.9375 C 8.066406 -9.75 8.679688 -10.25 9.484375 -10.4375 C 10.285156 -10.632812 11.15625 -10.488281 12.09375 -10 C 12.96875 -9.53125 13.539062 -8.925781 13.8125 -8.1875 C 14.09375 -7.457031 14.015625 -6.675781 13.578125 -5.84375 C 13.265625 -5.25 12.773438 -4.800781 12.109375 -4.5 C 11.441406 -4.207031 10.425781 -4.03125 9.0625 -3.96875 L 10.875 2.015625 C 11.445312 1.785156 11.984375 1.492188 12.484375 1.140625 C 12.992188 0.785156 13.515625 0.320312 14.046875 -0.25 L 14.859375 0.1875 C 13.753906 1.394531 12.507812 2.300781 11.125 2.90625 L 12.203125 6.421875 L 11.046875 5.8125 L 10.265625 3.234375 C 9.460938 3.472656 8.789062 3.601562 8.25 3.625 C 7.71875 3.644531 7.171875 3.585938 6.609375 3.453125 C 6.046875 3.328125 5.453125 3.097656 4.828125 2.765625 C 3.628906 2.128906 2.84375 1.332031 2.46875 0.375 C 2.09375 -0.570312 2.1875 -1.578125 2.75 -2.640625 Z M 5.3125 2.015625 C 6.050781 2.398438 6.789062 2.628906 7.53125 2.703125 C 8.269531 2.773438 9.085938 2.675781 9.984375 2.40625 L 8.03125 -3.96875 C 7.03125 -3.976562 6.28125 -3.925781 5.78125 -3.8125 C 5.28125 -3.707031 4.863281 -3.523438 4.53125 -3.265625 C 4.195312 -3.003906 3.910156 -2.648438 3.671875 -2.203125 C 3.242188 -1.378906 3.171875 -0.597656 3.453125 0.140625 C 3.742188 0.890625 4.363281 1.515625 5.3125 2.015625 Z M 8.5625 -8.4375 C 8.320312 -7.988281 8.210938 -7.507812 8.234375 -7 C 8.265625 -6.5 8.441406 -5.769531 8.765625 -4.8125 C 9.941406 -4.8125 10.816406 -4.9375 11.390625 -5.1875 C 11.972656 -5.4375 12.40625 -5.832031 12.6875 -6.375 C 12.976562 -6.914062 13.035156 -7.445312 12.859375 -7.96875 C 12.679688 -8.488281 12.289062 -8.910156 11.6875 -9.234375 C 11.03125 -9.578125 10.421875 -9.675781 9.859375 -9.53125 C 9.304688 -9.394531 8.875 -9.03125 8.5625 -8.4375 Z M 8.5625 -8.4375 "/></g></g></g><g fill="rgb(0%, 0%, 0%)" fill-opacity="1"><g transform="translate(150.36521, 309.302797)"><g><path d="M 5.46875 1.734375 L 4.515625 1.4375 L 8.5625 -11.25 L 4.140625 -12.65625 L 4.421875 -13.546875 L 14.203125 -10.4375 L 13.921875 -9.546875 L 9.515625 -10.953125 Z M 5.46875 1.734375 "/></g></g></g><g fill="rgb(0%, 0%, 0%)" fill-opacity="1"><g transform="translate(161.132455, 312.806845)"><g><path d="M 14.90625 -11.734375 L 13.21875 -2.671875 C 12.914062 -1.054688 12.210938 0.113281 11.109375 0.84375 C 10.015625 1.582031 8.628906 1.796875 6.953125 1.484375 C 5.328125 1.179688 4.144531 0.492188 3.40625 -0.578125 C 2.664062 -1.648438 2.445312 -3.003906 2.75 -4.640625 L 4.4375 -13.671875 L 5.421875 -13.5 L 3.734375 -4.4375 C 3.484375 -3.082031 3.660156 -1.957031 4.265625 -1.0625 C 4.867188 -0.175781 5.851562 0.390625 7.21875 0.640625 C 8.5625 0.890625 9.664062 0.710938 10.53125 0.109375 C 11.40625 -0.484375 11.96875 -1.4375 12.21875 -2.75 L 13.921875 -11.90625 Z M 14.90625 -11.734375 "/></g></g></g><g fill="rgb(0%, 0%, 0%)" fill-opacity="1"><g transform="translate(176.124153, 315.424888)"><g><path d="M 10.734375 0.625 L 9.59375 0.5625 L 5.765625 -6.328125 L 1.109375 0.0625 L 0 0 L 5.203125 -7.140625 L 1.265625 -14.1875 L 2.390625 -14.125 L 5.859375 -7.828125 L 10.140625 -13.6875 L 11.203125 -13.625 L 6.390625 -7.09375 Z M 10.734375 0.625 "/></g></g></g><g fill="rgb(0%, 0%, 0%)" fill-opacity="1"><g transform="translate(187.597021, 316.055174)"><g><path d="M 9.796875 -0.5 L 2.015625 -0.109375 L 1.28125 -14.34375 L 9.0625 -14.734375 L 9.109375 -13.828125 L 2.328125 -13.484375 L 2.609375 -8.09375 L 9 -8.421875 L 9.046875 -7.5 L 2.65625 -7.171875 L 2.96875 -1.078125 L 9.75 -1.421875 Z M 9.796875 -0.5 "/></g></g></g><g fill="rgb(0%, 0%, 0%)" fill-opacity="1"><g transform="translate(199.470861, 315.485178)"><g><path d="M 11.359375 -9.421875 C 11.773438 -7.054688 11.472656 -5.160156 10.453125 -3.734375 C 9.441406 -2.316406 7.742188 -1.394531 5.359375 -0.96875 L 1.984375 -0.359375 L -0.53125 -14.390625 L 3.265625 -15.0625 C 5.503906 -15.46875 7.3125 -15.1875 8.6875 -14.21875 C 10.0625 -13.257812 10.953125 -11.660156 11.359375 -9.421875 Z M 10.296875 -9.1875 C 9.941406 -11.195312 9.160156 -12.617188 7.953125 -13.453125 C 6.753906 -14.285156 5.164062 -14.523438 3.1875 -14.171875 L 0.609375 -13.703125 L 2.8125 -1.390625 L 5.140625 -1.8125 C 9.328125 -2.5625 11.046875 -5.019531 10.296875 -9.1875 Z M 10.296875 -9.1875 "/></g></g></g><g fill="rgb(0%, 0%, 0%)" fill-opacity="1"><g transform="translate(214.344681, 312.782854)"><g><path d="M 10.984375 -11.234375 C 11.703125 -9.085938 11.734375 -7.210938 11.078125 -5.609375 C 10.429688 -4.015625 9.164062 -2.898438 7.28125 -2.265625 C 5.40625 -1.628906 3.71875 -1.75 2.21875 -2.625 C 0.726562 -3.507812 -0.378906 -5.035156 -1.109375 -7.203125 C -1.828125 -9.347656 -1.851562 -11.21875 -1.1875 -12.8125 C -0.519531 -14.414062 0.742188 -15.53125 2.609375 -16.15625 C 4.492188 -16.789062 6.175781 -16.664062 7.65625 -15.78125 C 9.144531 -14.90625 10.253906 -13.390625 10.984375 -11.234375 Z M -0.0625 -7.515625 C 0.59375 -5.578125 1.523438 -4.222656 2.734375 -3.453125 C 3.953125 -2.691406 5.367188 -2.585938 6.984375 -3.140625 C 8.617188 -3.691406 9.6875 -4.632812 10.1875 -5.96875 C 10.695312 -7.300781 10.625 -8.941406 9.96875 -10.890625 C 9.3125 -12.847656 8.378906 -14.203125 7.171875 -14.953125 C 5.960938 -15.703125 4.546875 -15.800781 2.921875 -15.25 C 1.316406 -14.707031 0.253906 -13.765625 -0.265625 -12.421875 C -0.785156 -11.085938 -0.71875 -9.453125 -0.0625 -7.515625 Z M -0.0625 -7.515625 "/></g></g></g><g fill="rgb(0%, 0%, 0%)" fill-opacity="1"><g transform="translate(234.619281, 305.112782)"><g><path d="M 6.859375 -8.015625 C 7.429688 -6.984375 7.503906 -5.953125 7.078125 -4.921875 C 6.648438 -3.890625 5.804688 -3.023438 4.546875 -2.328125 C 3.023438 -1.472656 1.757812 -0.984375 0.75 -0.859375 L 0.265625 -1.734375 C 1.390625 -1.847656 2.644531 -2.289062 4.03125 -3.0625 C 5.050781 -3.632812 5.726562 -4.320312 6.0625 -5.125 C 6.40625 -5.925781 6.367188 -6.710938 5.953125 -7.484375 C 5.679688 -7.953125 5.359375 -8.285156 4.984375 -8.484375 C 4.609375 -8.679688 4.125 -8.78125 3.53125 -8.78125 C 2.945312 -8.78125 2.140625 -8.6875 1.109375 -8.5 C -0.410156 -8.226562 -1.554688 -8.210938 -2.328125 -8.453125 C -3.097656 -8.691406 -3.71875 -9.234375 -4.1875 -10.078125 C -4.707031 -11.003906 -4.757812 -11.960938 -4.34375 -12.953125 C -3.9375 -13.953125 -3.160156 -14.773438 -2.015625 -15.421875 C -0.859375 -16.066406 0.351562 -16.457031 1.625 -16.59375 L 1.734375 -15.671875 C 0.460938 -15.523438 -0.644531 -15.1875 -1.59375 -14.65625 C -2.507812 -14.144531 -3.125 -13.523438 -3.4375 -12.796875 C -3.75 -12.078125 -3.695312 -11.347656 -3.28125 -10.609375 C -3.03125 -10.148438 -2.734375 -9.820312 -2.390625 -9.625 C -2.054688 -9.425781 -1.632812 -9.3125 -1.125 -9.28125 C -0.613281 -9.25 0.1875 -9.332031 1.28125 -9.53125 C 2.445312 -9.726562 3.359375 -9.804688 4.015625 -9.765625 C 4.679688 -9.722656 5.238281 -9.5625 5.6875 -9.28125 C 6.144531 -9.007812 6.535156 -8.585938 6.859375 -8.015625 Z M 6.859375 -8.015625 "/></g></g></g><g fill="rgb(0%, 0%, 0%)" fill-opacity="1"><g transform="translate(244.915603, 299.439387)"><g><path d="M 9.9375 -7.328125 L 9.125 -6.734375 L 4.96875 -12.375 L -1.734375 -7.4375 L 2.421875 -1.796875 L 1.625 -1.203125 L -6.828125 -12.671875 L -6.03125 -13.265625 L -2.28125 -8.171875 L 4.421875 -13.109375 L 0.671875 -18.203125 L 1.484375 -18.796875 Z M 9.9375 -7.328125 "/></g></g></g><g fill="rgb(0%, 0%, 0%)" fill-opacity="1"><g transform="translate(257.276959, 290.272421)"><g><path d="M 4.859375 -14.953125 C 6.460938 -13.347656 7.328125 -11.679688 7.453125 -9.953125 C 7.578125 -8.222656 6.9375 -6.660156 5.53125 -5.265625 C 4.125 -3.859375 2.554688 -3.21875 0.828125 -3.34375 C -0.890625 -3.46875 -2.554688 -4.335938 -4.171875 -5.953125 C -5.765625 -7.554688 -6.617188 -9.222656 -6.734375 -10.953125 C -6.859375 -12.691406 -6.222656 -14.253906 -4.828125 -15.640625 C -3.421875 -17.046875 -1.851562 -17.679688 -0.125 -17.546875 C 1.59375 -17.421875 3.253906 -16.554688 4.859375 -14.953125 Z M -3.390625 -6.71875 C -1.941406 -5.269531 -0.503906 -4.46875 0.921875 -4.3125 C 2.347656 -4.164062 3.671875 -4.695312 4.890625 -5.90625 C 6.097656 -7.113281 6.628906 -8.429688 6.484375 -9.859375 C 6.347656 -11.285156 5.554688 -12.726562 4.109375 -14.1875 C 2.648438 -15.644531 1.210938 -16.4375 -0.203125 -16.5625 C -1.617188 -16.695312 -2.929688 -16.160156 -4.140625 -14.953125 C -5.335938 -13.753906 -5.867188 -12.441406 -5.734375 -11.015625 C -5.609375 -9.585938 -4.828125 -8.15625 -3.390625 -6.71875 Z M -3.390625 -6.71875 "/></g></g></g><g fill="rgb(0%, 0%, 0%)" fill-opacity="1"><g transform="translate(268.600828, 278.713486)"><g><path d="M -1.65625 -14.578125 C -0.5625 -13.742188 -0.00390625 -12.734375 0.015625 -11.546875 C 0.0351562 -10.367188 -0.476562 -9.097656 -1.53125 -7.734375 L -2.859375 -5.96875 L 1.828125 -2.390625 L 1.21875 -1.609375 L -10.109375 -10.25 L -7.984375 -13.03125 C -5.929688 -15.71875 -3.820312 -16.234375 -1.65625 -14.578125 Z M -3.546875 -6.484375 L -2.359375 -8.046875 C -1.390625 -9.316406 -0.894531 -10.398438 -0.875 -11.296875 C -0.863281 -12.191406 -1.328125 -13 -2.265625 -13.71875 C -3.140625 -14.382812 -3.992188 -14.609375 -4.828125 -14.390625 C -5.660156 -14.171875 -6.503906 -13.5 -7.359375 -12.375 L -8.796875 -10.484375 Z M -3.546875 -6.484375 "/></g></g></g><g fill="rgb(0%, 0%, 0%)" fill-opacity="1"><g transform="translate(96.610435, 113.468925)"><g><path d="M 8.984375 0 L 1.84375 0 L 1.84375 -13.0625 L 8.984375 -13.0625 L 8.984375 -12.21875 L 2.765625 -12.21875 L 2.765625 -7.28125 L 8.640625 -7.28125 L 8.640625 -6.4375 L 2.765625 -6.4375 L 2.765625 -0.84375 L 8.984375 -0.84375 Z M 8.984375 0 "/></g></g></g><g fill="rgb(0%, 0%, 0%)" fill-opacity="1"><g transform="translate(106.7012, 113.468925)"><g><path d="M 7.640625 -2.53125 C 7.640625 -1.65625 7.3125 -0.984375 6.65625 -0.515625 C 6 -0.0546875 5.0625 0.171875 3.84375 0.171875 C 2.539062 0.171875 1.507812 -0.0234375 0.75 -0.421875 L 0.75 -1.375 C 1.726562 -0.882812 2.757812 -0.640625 3.84375 -0.640625 C 4.800781 -0.640625 5.523438 -0.796875 6.015625 -1.109375 C 6.515625 -1.429688 6.765625 -1.859375 6.765625 -2.390625 C 6.765625 -2.878906 6.566406 -3.289062 6.171875 -3.625 C 5.773438 -3.957031 5.125 -4.285156 4.21875 -4.609375 C 3.25 -4.960938 2.566406 -5.265625 2.171875 -5.515625 C 1.785156 -5.765625 1.488281 -6.050781 1.28125 -6.375 C 1.082031 -6.695312 0.984375 -7.085938 0.984375 -7.546875 C 0.984375 -8.265625 1.289062 -8.835938 1.90625 -9.265625 C 2.519531 -9.691406 3.375 -9.90625 4.46875 -9.90625 C 5.519531 -9.90625 6.515625 -9.707031 7.453125 -9.3125 L 7.125 -8.5 C 6.164062 -8.894531 5.28125 -9.09375 4.46875 -9.09375 C 3.675781 -9.09375 3.046875 -8.960938 2.578125 -8.703125 C 2.117188 -8.441406 1.890625 -8.078125 1.890625 -7.609375 C 1.890625 -7.109375 2.066406 -6.703125 2.421875 -6.390625 C 2.785156 -6.085938 3.488281 -5.75 4.53125 -5.375 C 5.414062 -5.0625 6.054688 -4.773438 6.453125 -4.515625 C 6.847656 -4.265625 7.144531 -3.976562 7.34375 -3.65625 C 7.539062 -3.34375 7.640625 -2.96875 7.640625 -2.53125 Z M 7.640625 -2.53125 "/></g></g></g><g fill="rgb(0%, 0%, 0%)" fill-opacity="1"><g transform="translate(115.220306, 113.468925)"><g><path d="M 4.1875 -0.609375 C 4.75 -0.609375 5.238281 -0.65625 5.65625 -0.75 L 5.65625 -0.03125 C 5.226562 0.101562 4.734375 0.171875 4.171875 0.171875 C 3.316406 0.171875 2.679688 -0.0546875 2.265625 -0.515625 C 1.859375 -0.972656 1.65625 -1.691406 1.65625 -2.671875 L 1.65625 -8.9375 L 0.21875 -8.9375 L 0.21875 -9.46875 L 1.65625 -9.859375 L 2.109375 -12.0625 L 2.5625 -12.0625 L 2.5625 -9.71875 L 5.40625 -9.71875 L 5.40625 -8.9375 L 2.5625 -8.9375 L 2.5625 -2.796875 C 2.5625 -2.046875 2.691406 -1.492188 2.953125 -1.140625 C 3.210938 -0.785156 3.625 -0.609375 4.1875 -0.609375 Z M 4.1875 -0.609375 "/></g></g></g><g fill="rgb(0%, 0%, 0%)" fill-opacity="1"><g transform="translate(121.346204, 113.468925)"><g><path d="M 1.453125 -0.703125 C 1.453125 -1.285156 1.6875 -1.578125 2.15625 -1.578125 C 2.644531 -1.578125 2.890625 -1.285156 2.890625 -0.703125 C 2.890625 -0.117188 2.644531 0.171875 2.15625 0.171875 C 1.6875 0.171875 1.453125 -0.117188 1.453125 -0.703125 Z M 1.453125 -0.703125 "/></g></g></g><g fill="rgb(0%, 0%, 0%)" fill-opacity="1"><g transform="translate(249.312967, 114.13444)"><g><path d="M 9.1875 0 L 1.015625 0 L 1.015625 -0.78125 L 4.484375 -4.40625 C 5.460938 -5.425781 6.144531 -6.203125 6.53125 -6.734375 C 6.925781 -7.273438 7.21875 -7.785156 7.40625 -8.265625 C 7.59375 -8.753906 7.6875 -9.269531 7.6875 -9.8125 C 7.6875 -10.59375 7.425781 -11.222656 6.90625 -11.703125 C 6.394531 -12.191406 5.734375 -12.4375 4.921875 -12.4375 C 3.828125 -12.4375 2.785156 -12.039062 1.796875 -11.25 L 1.3125 -11.875 C 2.40625 -12.789062 3.613281 -13.25 4.9375 -13.25 C 6.070312 -13.25 6.96875 -12.941406 7.625 -12.328125 C 8.28125 -11.722656 8.609375 -10.890625 8.609375 -9.828125 C 8.609375 -8.960938 8.390625 -8.125 7.953125 -7.3125 C 7.515625 -6.507812 6.710938 -5.515625 5.546875 -4.328125 L 2.203125 -0.890625 L 2.203125 -0.859375 L 9.1875 -0.859375 Z M 9.1875 0 "/></g></g></g><g fill="rgb(0%, 0%, 0%)" fill-opacity="1"><g transform="translate(259.751998, 114.13444)"><g><path d="M 9.421875 -6.5625 C 9.421875 -4.269531 9.070312 -2.570312 8.375 -1.46875 C 7.675781 -0.375 6.617188 0.171875 5.203125 0.171875 C 3.835938 0.171875 2.800781 -0.390625 2.09375 -1.515625 C 1.382812 -2.648438 1.03125 -4.332031 1.03125 -6.5625 C 1.03125 -8.84375 1.375 -10.53125 2.0625 -11.625 C 2.75 -12.71875 3.796875 -13.265625 5.203125 -13.265625 C 6.578125 -13.265625 7.625 -12.695312 8.34375 -11.5625 C 9.0625 -10.425781 9.421875 -8.757812 9.421875 -6.5625 Z M 2 -6.5625 C 2 -4.539062 2.257812 -3.046875 2.78125 -2.078125 C 3.3125 -1.109375 4.117188 -0.625 5.203125 -0.625 C 6.328125 -0.625 7.144531 -1.125 7.65625 -2.125 C 8.175781 -3.125 8.4375 -4.601562 8.4375 -6.5625 C 8.4375 -8.5 8.175781 -9.96875 7.65625 -10.96875 C 7.144531 -11.96875 6.328125 -12.46875 5.203125 -12.46875 C 4.078125 -12.46875 3.257812 -11.96875 2.75 -10.96875 C 2.25 -9.96875 2 -8.5 2 -6.5625 Z M 2 -6.5625 "/></g></g></g><g fill="rgb(0%, 0%, 0%)" fill-opacity="1"><g transform="translate(270.191028, 114.13444)"><g><path d="M 9.1875 0 L 1.015625 0 L 1.015625 -0.78125 L 4.484375 -4.40625 C 5.460938 -5.425781 6.144531 -6.203125 6.53125 -6.734375 C 6.925781 -7.273438 7.21875 -7.785156 7.40625 -8.265625 C 7.59375 -8.753906 7.6875 -9.269531 7.6875 -9.8125 C 7.6875 -10.59375 7.425781 -11.222656 6.90625 -11.703125 C 6.394531 -12.191406 5.734375 -12.4375 4.921875 -12.4375 C 3.828125 -12.4375 2.785156 -12.039062 1.796875 -11.25 L 1.3125 -11.875 C 2.40625 -12.789062 3.613281 -13.25 4.9375 -13.25 C 6.070312 -13.25 6.96875 -12.941406 7.625 -12.328125 C 8.28125 -11.722656 8.609375 -10.890625 8.609375 -9.828125 C 8.609375 -8.960938 8.390625 -8.125 7.953125 -7.3125 C 7.515625 -6.507812 6.710938 -5.515625 5.546875 -4.328125 L 2.203125 -0.890625 L 2.203125 -0.859375 L 9.1875 -0.859375 Z M 9.1875 0 "/></g></g></g><g fill="rgb(0%, 0%, 0%)" fill-opacity="1"><g transform="translate(280.630058, 114.13444)"><g><path d="M 9.1875 0 L 1.015625 0 L 1.015625 -0.78125 L 4.484375 -4.40625 C 5.460938 -5.425781 6.144531 -6.203125 6.53125 -6.734375 C 6.925781 -7.273438 7.21875 -7.785156 7.40625 -8.265625 C 7.59375 -8.753906 7.6875 -9.269531 7.6875 -9.8125 C 7.6875 -10.59375 7.425781 -11.222656 6.90625 -11.703125 C 6.394531 -12.191406 5.734375 -12.4375 4.921875 -12.4375 C 3.828125 -12.4375 2.785156 -12.039062 1.796875 -11.25 L 1.3125 -11.875 C 2.40625 -12.789062 3.613281 -13.25 4.9375 -13.25 C 6.070312 -13.25 6.96875 -12.941406 7.625 -12.328125 C 8.28125 -11.722656 8.609375 -10.890625 8.609375 -9.828125 C 8.609375 -8.960938 8.390625 -8.125 7.953125 -7.3125 C 7.515625 -6.507812 6.710938 -5.515625 5.546875 -4.328125 L 2.203125 -0.890625 L 2.203125 -0.859375 L 9.1875 -0.859375 Z M 9.1875 0 "/></g></g></g><g clip-path="url(#id2)"><path fill="rgb(0%, 0%, 0%)" d="M 218.5 225.566406 L 203.335938 231.601562 C 198.507812 233.230469 195.320312 236.199219 193.484375 238.496094 C 192.132812 237.636719 190.492188 237.15625 188.65625 237.15625 L 186.335938 237.15625 C 184.597656 237.15625 182.957031 237.636719 181.507812 238.496094 C 179.671875 236.199219 176.484375 233.230469 171.65625 231.601562 L 156.492188 225.566406 C 156.492188 225.566406 149.246094 231.984375 149.246094 245.96875 C 149.246094 260.054688 156.492188 266.375 156.492188 266.375 L 171.65625 260.339844 C 176.484375 258.710938 179.671875 255.742188 181.507812 253.441406 C 182.859375 254.304688 184.5 254.785156 186.335938 254.785156 L 188.65625 254.785156 C 190.394531 254.785156 192.035156 254.304688 193.484375 253.441406 C 195.320312 255.742188 198.507812 258.710938 203.335938 260.339844 L 218.5 266.375 C 218.5 266.375 225.746094 259.957031 225.746094 245.96875 C 225.746094 231.886719 218.5 225.566406 218.5 225.566406 Z M 218.5 225.566406 " fill-opacity="1" fill-rule="nonzero"/></g><g fill="rgb(0%, 0%, 0%)" fill-opacity="1"><g transform="translate(46.851831, 196.333587)"><g><path d="M 22.800781 -22.519531 C 22.71875 -22.761719 22.679688 -22.960938 22.601562 -23.160156 C 22.5625 -23.359375 22.480469 -23.558594 22.402344 -23.71875 C 22.203125 -24.078125 22 -24.4375 21.761719 -24.757812 C 21.601562 -24.917969 21.441406 -25.117188 21.28125 -25.316406 C 21.164062 -25.4375 21.042969 -25.554688 20.921875 -25.636719 C 20.484375 -25.996094 20.046875 -26.394531 19.566406 -26.671875 C 19.484375 -26.753906 19.40625 -26.832031 19.285156 -26.914062 C 18.96875 -27.074219 18.648438 -27.234375 18.289062 -27.351562 C 18.089844 -27.433594 17.808594 -27.472656 17.570312 -27.550781 C 17.25 -27.671875 16.890625 -27.710938 16.492188 -27.710938 C 16.011719 -27.710938 15.53125 -27.710938 15.054688 -27.710938 C 14.8125 -27.710938 14.574219 -27.710938 14.335938 -27.792969 C 13.894531 -27.871094 13.457031 -27.871094 12.976562 -27.871094 C 12.539062 -27.871094 12.097656 -27.871094 11.660156 -27.871094 C 11.179688 -27.871094 10.703125 -27.871094 10.222656 -27.75 C 10.0625 -27.75 9.902344 -27.75 9.703125 -27.75 C 8.664062 -27.75 7.625 -27.710938 6.546875 -27.832031 C 6.390625 -27.871094 6.230469 -27.871094 6.070312 -27.871094 C 5.109375 -27.871094 4.152344 -27.871094 3.15625 -27.871094 C 3.074219 -27.871094 2.996094 -27.871094 2.914062 -27.871094 C 2.636719 -27.832031 2.355469 -27.792969 2.117188 -27.632812 C 2.035156 -27.59375 1.996094 -27.511719 1.996094 -27.433594 C 1.996094 -27.351562 2.035156 -27.273438 2.117188 -27.234375 C 2.195312 -27.191406 2.277344 -27.191406 2.355469 -27.152344 C 2.753906 -27.113281 3.15625 -27.03125 3.554688 -26.953125 C 3.671875 -26.914062 3.792969 -26.832031 3.875 -26.792969 C 3.992188 -26.753906 4.074219 -26.632812 4.113281 -26.515625 C 4.191406 -25.875 4.3125 -25.234375 4.351562 -24.597656 C 4.390625 -24.316406 4.433594 -24.039062 4.472656 -23.757812 C 4.511719 -23.480469 4.550781 -23.160156 4.511719 -22.878906 C 4.390625 -22 4.390625 -21.125 4.390625 -20.246094 C 4.351562 -19.644531 4.351562 -19.085938 4.3125 -18.527344 C 4.3125 -17.890625 4.273438 -17.210938 4.273438 -16.570312 C 4.273438 -15.972656 4.273438 -15.375 4.191406 -14.773438 C 4.152344 -14.574219 4.191406 -14.335938 4.191406 -14.136719 C 4.152344 -12.539062 4.152344 -10.902344 4.152344 -9.304688 C 4.113281 -8.546875 4.113281 -7.828125 4.191406 -7.109375 C 4.234375 -6.789062 4.273438 -6.46875 4.273438 -6.148438 C 4.273438 -5.828125 4.273438 -5.550781 4.273438 -5.269531 C 4.273438 -4.992188 4.234375 -4.710938 4.191406 -4.433594 C 4.152344 -4.191406 4.152344 -3.953125 4.152344 -3.714844 C 4.113281 -3.113281 4.113281 -2.476562 4.113281 -1.875 C 4.113281 -1.71875 4.113281 -1.558594 4.113281 -1.398438 C 4.113281 -1.238281 3.875 -1 3.714844 -0.957031 C 3.234375 -0.839844 2.714844 -0.679688 2.195312 -0.679688 C 1.957031 -0.679688 1.757812 -0.679688 1.597656 -0.597656 C 1.398438 -0.519531 1.316406 -0.4375 1.238281 -0.28125 C 1.199219 -0.199219 1.277344 0 1.398438 0 C 1.515625 0 1.636719 0.0390625 1.757812 0.0390625 C 3.832031 0.078125 5.949219 0.121094 8.066406 0.121094 C 8.34375 0.121094 8.625 0.121094 8.90625 0.121094 C 9.824219 0.0390625 10.703125 0.078125 11.578125 0.078125 C 12.816406 0.121094 14.015625 0.121094 15.253906 0.078125 C 15.613281 0.078125 15.972656 0.078125 16.332031 0.078125 C 16.652344 0.0390625 16.96875 0.0390625 17.289062 0.0390625 C 17.488281 0.0390625 17.6875 0 17.890625 -0.0390625 C 18.046875 -0.078125 18.207031 -0.160156 18.367188 -0.160156 C 18.808594 -0.160156 19.167969 -0.320312 19.527344 -0.480469 C 20.203125 -0.71875 20.683594 -0.917969 21.203125 -1.238281 C 21.722656 -1.558594 22.203125 -1.917969 22.519531 -2.476562 C 22.601562 -2.636719 22.71875 -2.796875 22.839844 -2.953125 C 23.039062 -3.195312 23.160156 -3.433594 23.28125 -3.714844 C 23.519531 -4.351562 23.757812 -4.992188 23.839844 -5.671875 C 23.839844 -5.871094 23.917969 -6.070312 23.917969 -6.269531 C 23.957031 -6.429688 23.957031 -6.589844 23.957031 -6.75 C 24 -7.027344 23.957031 -7.265625 24 -7.507812 C 24 -8.105469 23.878906 -8.703125 23.71875 -9.304688 C 23.597656 -9.78125 23.398438 -10.300781 23.160156 -10.78125 C 23.039062 -10.980469 22.878906 -11.179688 22.71875 -11.378906 C 22.28125 -11.859375 21.800781 -12.257812 21.242188 -12.617188 C 20.722656 -12.898438 20.203125 -13.21875 19.644531 -13.457031 C 19.207031 -13.617188 18.808594 -13.816406 18.40625 -14.015625 C 17.96875 -14.214844 17.53125 -14.414062 17.089844 -14.574219 C 16.96875 -14.574219 16.929688 -14.613281 16.929688 -14.695312 C 16.929688 -14.695312 16.96875 -14.734375 17.011719 -14.773438 C 17.171875 -14.855469 17.371094 -14.933594 17.53125 -15.015625 C 17.929688 -15.171875 18.328125 -15.292969 18.6875 -15.492188 C 19.125 -15.734375 19.605469 -15.972656 20.085938 -16.210938 C 20.5625 -16.492188 21.042969 -16.8125 21.441406 -17.210938 C 21.5625 -17.289062 21.640625 -17.371094 21.683594 -17.449219 C 21.960938 -17.929688 22.242188 -18.367188 22.480469 -18.847656 C 22.519531 -19.007812 22.5625 -19.167969 22.601562 -19.328125 C 22.601562 -19.484375 22.601562 -19.644531 22.640625 -19.804688 C 22.800781 -20.40625 22.800781 -21.003906 22.800781 -21.601562 C 22.800781 -21.882812 22.800781 -22.160156 22.800781 -22.519531 Z M 15.453125 -1.199219 C 15.292969 -1.15625 15.09375 -1.117188 14.894531 -1.078125 C 14.65625 -1 14.414062 -0.957031 14.175781 -0.957031 C 12.898438 -0.957031 11.660156 -0.957031 10.382812 -0.957031 C 10.300781 -0.957031 10.222656 -0.957031 10.183594 -1 C 9.984375 -1.078125 9.902344 -1.199219 9.902344 -1.359375 C 9.902344 -2.476562 9.902344 -3.554688 9.902344 -4.671875 C 9.941406 -5.351562 9.941406 -6.03125 9.941406 -6.707031 C 9.984375 -7.507812 9.984375 -8.265625 10.101562 -9.023438 C 10.140625 -9.421875 10.140625 -9.824219 10.0625 -10.261719 C 10.023438 -10.421875 9.984375 -10.660156 9.984375 -10.859375 C 9.984375 -11.738281 9.984375 -12.617188 9.984375 -13.535156 C 9.984375 -13.695312 10.183594 -13.9375 10.34375 -13.976562 C 10.421875 -13.976562 10.5 -14.015625 10.582031 -14.015625 C 10.902344 -14.015625 11.21875 -14.054688 11.578125 -14.054688 C 12.140625 -14.054688 12.699219 -14.054688 13.257812 -14.054688 C 13.578125 -14.054688 13.894531 -14.015625 14.214844 -13.894531 C 14.253906 -13.894531 14.296875 -13.894531 14.335938 -13.894531 C 15.054688 -13.777344 15.613281 -13.335938 16.050781 -12.777344 C 16.851562 -11.820312 17.449219 -10.742188 17.847656 -9.503906 C 17.929688 -9.222656 17.96875 -8.945312 17.96875 -8.664062 C 17.96875 -8.265625 18.007812 -7.867188 18.007812 -7.46875 C 18.007812 -6.90625 18.007812 -6.308594 17.96875 -5.75 C 17.96875 -5.152344 17.808594 -4.550781 17.570312 -3.992188 C 17.371094 -3.472656 17.089844 -2.953125 16.769531 -2.476562 C 16.410156 -1.957031 16.011719 -1.558594 15.453125 -1.199219 Z M 10.582031 -26.953125 C 10.859375 -26.992188 11.140625 -27.03125 11.421875 -27.074219 C 11.9375 -27.191406 12.457031 -27.191406 12.976562 -27.074219 C 13.175781 -26.992188 13.375 -26.992188 13.578125 -26.953125 C 13.976562 -26.953125 14.296875 -26.792969 14.613281 -26.632812 C 14.695312 -26.632812 14.773438 -26.554688 14.8125 -26.515625 C 15.09375 -26.15625 15.375 -25.796875 15.652344 -25.4375 C 15.933594 -25.078125 16.210938 -24.675781 16.371094 -24.199219 C 16.691406 -23.519531 16.929688 -22.839844 17.050781 -22.121094 C 17.171875 -21.683594 17.25 -21.242188 17.25 -20.804688 C 17.25 -19.886719 17.289062 -18.925781 17.210938 -17.96875 C 17.128906 -17.6875 17.050781 -17.371094 16.929688 -17.089844 C 16.769531 -16.609375 16.492188 -16.210938 16.050781 -15.972656 C 15.492188 -15.613281 14.894531 -15.375 14.253906 -15.214844 C 14.054688 -15.171875 13.855469 -15.132812 13.65625 -15.09375 C 13.535156 -15.09375 13.417969 -15.054688 13.296875 -15.054688 C 12.339844 -15.015625 11.378906 -15.015625 10.382812 -15.054688 C 10.261719 -15.054688 10.0625 -15.214844 10.0625 -15.332031 C 10.023438 -15.414062 10.023438 -15.492188 10.023438 -15.574219 C 9.984375 -16.050781 9.984375 -16.570312 9.984375 -17.050781 C 9.984375 -17.210938 9.984375 -17.371094 10.023438 -17.53125 C 10.140625 -18.089844 10.140625 -18.648438 10.183594 -19.207031 C 10.222656 -19.527344 10.222656 -19.886719 10.222656 -20.203125 C 10.261719 -20.40625 10.261719 -20.605469 10.300781 -20.804688 C 10.382812 -21.164062 10.382812 -21.523438 10.382812 -21.882812 C 10.382812 -23.199219 10.382812 -24.558594 10.382812 -25.875 C 10.382812 -26.113281 10.421875 -26.394531 10.421875 -26.632812 C 10.421875 -26.753906 10.5 -26.832031 10.582031 -26.953125 Z M 10.582031 -26.953125 "/></g></g></g><g fill="rgb(0%, 0%, 0%)" fill-opacity="1"><g transform="translate(72.207627, 196.333587)"><g><path d="M 11.78125 0.0390625 C 12.179688 0.0390625 12.578125 0.0390625 12.976562 0.0390625 C 15.691406 0.0390625 18.40625 0.0390625 21.125 0.0390625 C 21.484375 0.0390625 21.800781 0.0390625 22.121094 0 C 22.359375 0 22.601562 -0.121094 22.800781 -0.238281 C 22.921875 -0.359375 23 -0.519531 23.039062 -0.679688 C 23.078125 -1 23.078125 -1.316406 23.121094 -1.636719 C 23.160156 -1.835938 23.160156 -2.035156 23.199219 -2.234375 C 23.28125 -2.554688 23.320312 -2.875 23.320312 -3.195312 C 23.359375 -3.714844 23.359375 -4.234375 23.4375 -4.75 C 23.597656 -5.390625 23.597656 -6.070312 23.558594 -6.707031 C 23.558594 -6.90625 23.320312 -7.066406 23.121094 -6.988281 C 22.960938 -6.988281 22.839844 -6.867188 22.761719 -6.707031 C 22.71875 -6.589844 22.679688 -6.46875 22.679688 -6.347656 C 22.601562 -6.03125 22.5625 -5.710938 22.441406 -5.429688 C 22.359375 -5.109375 22.242188 -4.792969 22.082031 -4.511719 C 21.960938 -4.234375 21.800781 -3.953125 21.683594 -3.632812 C 21.5625 -3.394531 21.402344 -3.15625 21.242188 -2.914062 C 21.082031 -2.714844 20.921875 -2.554688 20.722656 -2.394531 C 20.5625 -2.277344 20.40625 -2.15625 20.203125 -2.078125 C 19.964844 -1.917969 19.726562 -1.796875 19.445312 -1.71875 C 18.808594 -1.558594 18.207031 -1.398438 17.53125 -1.359375 C 16.96875 -1.359375 16.410156 -1.359375 15.851562 -1.238281 C 15.652344 -1.199219 15.414062 -1.199219 15.214844 -1.199219 C 13.734375 -1.199219 12.21875 -1.199219 10.742188 -1.199219 C 10.621094 -1.199219 10.5 -1.199219 10.382812 -1.199219 C 10.300781 -1.238281 10.101562 -1.359375 10.101562 -1.4375 C 10.0625 -1.515625 10.023438 -1.597656 10.023438 -1.675781 C 10.023438 -2.15625 9.984375 -2.636719 9.984375 -3.113281 C 9.984375 -4.832031 9.984375 -6.546875 9.984375 -8.226562 C 9.984375 -9.0625 9.984375 -9.863281 10.101562 -10.660156 C 10.140625 -10.859375 10.140625 -11.0625 10.140625 -11.261719 C 10.183594 -11.820312 10.183594 -12.417969 10.222656 -12.976562 C 10.222656 -13.097656 10.222656 -13.21875 10.261719 -13.335938 C 10.261719 -13.417969 10.421875 -13.578125 10.5 -13.578125 C 10.621094 -13.617188 10.820312 -13.65625 10.980469 -13.65625 C 12.257812 -13.617188 13.578125 -13.617188 14.855469 -13.617188 C 15.375 -13.617188 15.8125 -13.496094 16.25 -13.257812 C 16.332031 -13.175781 16.453125 -13.136719 16.570312 -13.058594 C 16.609375 -13.058594 16.609375 -13.015625 16.652344 -12.976562 C 16.8125 -12.898438 16.929688 -12.777344 16.96875 -12.617188 C 17.171875 -12.140625 17.328125 -11.621094 17.449219 -11.140625 C 17.53125 -10.859375 17.609375 -10.582031 17.730469 -10.300781 C 17.769531 -10.261719 17.808594 -10.183594 17.847656 -10.101562 C 17.929688 -9.984375 18.007812 -9.941406 18.167969 -9.941406 C 18.289062 -9.941406 18.449219 -10.101562 18.488281 -10.261719 C 18.488281 -10.382812 18.488281 -10.5 18.488281 -10.621094 C 18.488281 -10.941406 18.449219 -11.261719 18.367188 -11.578125 C 18.289062 -11.898438 18.25 -12.21875 18.25 -12.539062 C 18.207031 -13.136719 18.207031 -13.734375 18.25 -14.375 C 18.289062 -14.613281 18.25 -14.855469 18.328125 -15.09375 C 18.449219 -15.851562 18.449219 -16.609375 18.527344 -17.371094 C 18.566406 -17.6875 18.527344 -17.96875 18.527344 -18.25 C 18.527344 -18.328125 18.527344 -18.40625 18.488281 -18.488281 C 18.449219 -18.527344 18.367188 -18.609375 18.328125 -18.648438 C 18.289062 -18.6875 18.046875 -18.609375 18.007812 -18.566406 C 17.929688 -18.449219 17.847656 -18.367188 17.808594 -18.25 C 17.6875 -17.890625 17.609375 -17.53125 17.570312 -17.171875 C 17.488281 -16.8125 17.371094 -16.492188 17.25 -16.132812 C 17.171875 -15.851562 16.96875 -15.652344 16.730469 -15.492188 C 16.292969 -15.214844 15.851562 -15.054688 15.375 -15.054688 C 15.171875 -15.054688 14.972656 -15.015625 14.773438 -15.015625 C 13.417969 -15.015625 12.097656 -15.015625 10.742188 -15.015625 C 10.703125 -15.015625 10.660156 -15.015625 10.621094 -15.015625 C 10.460938 -15.054688 10.300781 -15.214844 10.300781 -15.332031 C 10.300781 -15.691406 10.300781 -16.09375 10.300781 -16.453125 C 10.300781 -16.769531 10.261719 -17.089844 10.300781 -17.410156 C 10.382812 -17.808594 10.382812 -18.207031 10.382812 -18.609375 C 10.382812 -19.484375 10.382812 -20.324219 10.382812 -21.164062 C 10.382812 -21.84375 10.421875 -22.480469 10.300781 -23.121094 C 10.261719 -23.238281 10.261719 -23.359375 10.261719 -23.480469 C 10.261719 -24.277344 10.222656 -25.117188 10.222656 -25.914062 C 10.183594 -26.035156 10.222656 -26.15625 10.222656 -26.273438 C 10.222656 -26.394531 10.382812 -26.59375 10.542969 -26.632812 C 10.703125 -26.671875 10.859375 -26.671875 11.019531 -26.671875 C 12.539062 -26.671875 14.09375 -26.671875 15.613281 -26.671875 C 16.132812 -26.671875 16.609375 -26.671875 17.089844 -26.671875 C 17.25 -26.671875 17.410156 -26.671875 17.570312 -26.632812 C 17.929688 -26.515625 18.289062 -26.515625 18.648438 -26.433594 C 18.765625 -26.394531 18.886719 -26.355469 18.96875 -26.273438 C 19.046875 -26.234375 19.125 -26.195312 19.167969 -26.15625 C 19.84375 -25.554688 20.40625 -24.835938 20.882812 -24.078125 C 21.082031 -23.757812 21.28125 -23.398438 21.484375 -23.039062 C 21.523438 -22.960938 21.5625 -22.878906 21.5625 -22.800781 C 21.683594 -22.441406 21.84375 -22.121094 21.882812 -21.761719 C 21.882812 -21.640625 21.921875 -21.523438 21.960938 -21.402344 C 21.960938 -21.324219 22 -21.242188 22.082031 -21.203125 C 22.121094 -21.164062 22.203125 -21.125 22.28125 -21.125 C 22.359375 -21.082031 22.5625 -21.242188 22.5625 -21.324219 C 22.5625 -21.402344 22.601562 -21.484375 22.601562 -21.5625 C 22.601562 -22.160156 22.601562 -22.761719 22.519531 -23.359375 C 22.480469 -23.757812 22.441406 -24.199219 22.441406 -24.597656 C 22.441406 -25.195312 22.441406 -25.796875 22.441406 -26.394531 C 22.402344 -26.792969 22.402344 -27.152344 22.320312 -27.511719 C 22.320312 -27.632812 22.121094 -27.792969 22 -27.832031 C 21.800781 -27.871094 21.601562 -27.871094 21.402344 -27.871094 C 17.410156 -27.910156 13.457031 -27.910156 9.464844 -27.953125 C 9.183594 -27.953125 8.90625 -27.953125 8.625 -27.910156 C 8.105469 -27.871094 7.546875 -27.871094 7.027344 -27.871094 C 6.75 -27.871094 6.46875 -27.832031 6.1875 -27.792969 C 5.390625 -27.632812 4.59375 -27.671875 3.753906 -27.792969 C 3.15625 -27.871094 2.554688 -27.871094 1.957031 -27.832031 C 1.835938 -27.832031 1.675781 -27.671875 1.675781 -27.511719 C 1.675781 -27.433594 1.71875 -27.351562 1.757812 -27.273438 C 1.917969 -27.113281 2.078125 -26.992188 2.277344 -26.992188 C 2.714844 -26.953125 3.15625 -26.792969 3.59375 -26.714844 C 3.792969 -26.671875 3.953125 -26.554688 4.113281 -26.394531 C 4.234375 -26.3125 4.3125 -26.15625 4.3125 -25.996094 C 4.351562 -25.753906 4.351562 -25.515625 4.351562 -25.277344 C 4.351562 -23.558594 4.351562 -21.84375 4.351562 -20.164062 C 4.390625 -19.367188 4.390625 -18.609375 4.433594 -17.847656 C 4.433594 -17.609375 4.433594 -17.371094 4.472656 -17.128906 C 4.550781 -16.730469 4.550781 -16.292969 4.550781 -15.890625 C 4.550781 -14.855469 4.550781 -13.777344 4.59375 -12.738281 C 4.632812 -12.21875 4.59375 -11.699219 4.550781 -11.179688 C 4.433594 -10.382812 4.433594 -9.625 4.390625 -8.863281 C 4.390625 -8.34375 4.390625 -7.785156 4.351562 -7.265625 C 4.351562 -7.027344 4.351562 -6.789062 4.3125 -6.546875 C 4.152344 -6.03125 4.191406 -5.511719 4.191406 -4.992188 C 4.191406 -4.390625 4.191406 -3.832031 4.191406 -3.273438 C 4.191406 -2.875 4.152344 -2.476562 4.113281 -2.078125 C 4.074219 -1.757812 3.914062 -1.515625 3.632812 -1.398438 C 3.472656 -1.277344 3.273438 -1.199219 3.074219 -1.117188 C 2.796875 -1 2.476562 -0.957031 2.15625 -0.917969 C 1.875 -0.878906 1.597656 -0.757812 1.359375 -0.597656 C 1.277344 -0.519531 1.238281 -0.398438 1.238281 -0.28125 C 1.238281 -0.160156 1.359375 -0.0390625 1.4375 0 C 1.597656 0.078125 1.757812 0.078125 1.917969 0.078125 C 4.113281 0.078125 6.308594 0.121094 8.503906 0.121094 C 9.542969 0.121094 10.621094 0.160156 11.660156 0.0390625 C 11.699219 0.0390625 11.738281 0.0390625 11.78125 0.0390625 Z M 11.78125 0.0390625 "/></g></g></g><g fill="rgb(0%, 0%, 0%)" fill-opacity="1"><g transform="translate(97.363767, 196.333587)"><g><path d="M 3.953125 -1.238281 C 3.3125 -1 2.636719 -0.878906 1.957031 -0.71875 C 1.757812 -0.640625 1.476562 -0.679688 1.238281 -0.640625 C 1.039062 -0.597656 0.878906 -0.519531 0.71875 -0.359375 C 0.640625 -0.320312 0.597656 -0.238281 0.640625 -0.160156 C 0.679688 -0.078125 0.71875 -0.0390625 0.796875 0 C 0.878906 0 0.957031 0.0390625 1.039062 0.0390625 C 1.359375 0.0390625 1.71875 0.0390625 2.035156 0.0390625 C 5.269531 0.0390625 8.503906 0.0390625 11.738281 0.0390625 C 12.019531 0.0390625 12.339844 0 12.617188 0 C 12.699219 0 12.738281 -0.0390625 12.816406 -0.0390625 C 12.976562 -0.078125 13.058594 -0.320312 12.976562 -0.4375 C 12.898438 -0.558594 12.816406 -0.640625 12.699219 -0.640625 C 12.097656 -0.71875 11.539062 -0.679688 10.980469 -0.839844 C 10.820312 -0.878906 10.660156 -0.839844 10.5 -0.878906 C 10.183594 -0.878906 9.863281 -0.878906 9.542969 -0.878906 C 9.34375 -0.917969 9.144531 -0.917969 8.945312 -1 C 8.625 -1.117188 8.304688 -1.117188 8.027344 -1.277344 C 7.90625 -1.316406 7.785156 -1.398438 7.707031 -1.4375 C 7.386719 -1.675781 7.1875 -1.957031 7.1875 -2.355469 C 7.1875 -2.636719 7.1875 -2.914062 7.308594 -3.195312 C 7.425781 -3.632812 7.546875 -4.074219 7.625 -4.511719 C 7.707031 -4.871094 7.828125 -5.191406 7.90625 -5.550781 C 7.984375 -5.828125 8.105469 -6.070312 8.1875 -6.347656 C 8.265625 -6.667969 8.34375 -6.988281 8.503906 -7.265625 C 8.585938 -7.546875 8.585938 -7.828125 8.703125 -8.105469 C 8.746094 -8.1875 8.785156 -8.226562 8.863281 -8.265625 C 8.984375 -8.34375 9.0625 -8.386719 9.183594 -8.386719 C 9.742188 -8.464844 10.261719 -8.464844 10.78125 -8.464844 C 11.378906 -8.464844 11.980469 -8.503906 12.578125 -8.585938 C 12.816406 -8.664062 13.097656 -8.664062 13.335938 -8.664062 C 14.933594 -8.703125 16.570312 -8.785156 18.167969 -8.785156 C 18.527344 -8.785156 18.925781 -8.785156 19.285156 -8.863281 C 19.367188 -8.863281 19.445312 -8.863281 19.527344 -8.863281 C 19.726562 -8.863281 19.925781 -8.785156 20.046875 -8.625 C 20.246094 -8.34375 20.40625 -8.066406 20.484375 -7.746094 C 20.765625 -6.90625 21.125 -6.109375 21.402344 -5.230469 C 21.441406 -5.109375 21.484375 -4.953125 21.523438 -4.792969 C 21.601562 -4.351562 21.722656 -3.914062 21.882812 -3.472656 C 22.082031 -2.953125 22.203125 -2.394531 22.441406 -1.875 C 22.480469 -1.757812 22.441406 -1.636719 22.402344 -1.558594 C 22.320312 -1.4375 22.28125 -1.316406 22.160156 -1.238281 C 21.960938 -1.117188 21.761719 -0.957031 21.523438 -0.917969 C 21.042969 -0.878906 20.5625 -0.71875 20.085938 -0.679688 C 20.003906 -0.679688 19.925781 -0.640625 19.84375 -0.640625 C 19.566406 -0.558594 19.527344 -0.199219 19.644531 -0.0390625 C 19.765625 0.121094 19.886719 0.160156 20.046875 0.238281 C 20.683594 0.28125 21.363281 0.28125 22 0.199219 C 22.71875 0.121094 23.4375 0.121094 24.15625 0.078125 C 26.15625 0.078125 28.152344 0.078125 30.148438 0.0390625 C 30.265625 0.0390625 30.386719 0.0390625 30.507812 0.0390625 C 30.746094 0.0390625 30.945312 -0.160156 31.027344 -0.398438 C 31.105469 -0.558594 30.984375 -0.839844 30.785156 -0.878906 C 30.507812 -0.957031 30.1875 -1.117188 29.867188 -1.117188 C 29.589844 -1.15625 29.308594 -1.277344 29.070312 -1.359375 C 28.710938 -1.476562 28.511719 -1.71875 28.351562 -2.035156 C 28.3125 -2.117188 28.269531 -2.234375 28.230469 -2.355469 C 27.792969 -3.433594 27.351562 -4.550781 27.03125 -5.671875 C 26.914062 -6.109375 26.753906 -6.507812 26.554688 -6.90625 C 26.472656 -7.109375 26.394531 -7.308594 26.355469 -7.46875 C 25.996094 -8.34375 25.636719 -9.222656 25.234375 -10.0625 C 25.035156 -10.421875 24.875 -10.78125 24.71875 -11.140625 C 24.558594 -11.578125 24.359375 -11.980469 24.238281 -12.378906 C 24.117188 -12.777344 23.917969 -13.136719 23.757812 -13.496094 C 23.757812 -13.535156 23.757812 -13.578125 23.71875 -13.617188 C 23.558594 -14.175781 23.398438 -14.695312 23.238281 -15.253906 C 22.878906 -16.410156 22.519531 -17.570312 22 -18.6875 C 21.761719 -19.246094 21.523438 -19.804688 21.324219 -20.363281 C 21.28125 -20.5625 21.203125 -20.765625 21.125 -20.921875 C 20.804688 -21.84375 20.40625 -22.761719 20.125 -23.679688 C 20.003906 -24.078125 19.84375 -24.4375 19.6875 -24.796875 C 19.484375 -25.195312 19.367188 -25.636719 19.125 -26.035156 C 18.925781 -26.3125 18.847656 -26.714844 18.6875 -26.992188 C 18.449219 -27.390625 18.128906 -27.632812 17.730469 -27.710938 C 17.609375 -27.710938 17.488281 -27.710938 17.371094 -27.710938 C 16.769531 -27.75 16.210938 -27.75 15.652344 -27.832031 C 15.453125 -27.871094 15.253906 -27.871094 15.054688 -27.871094 C 14.335938 -27.871094 13.578125 -27.910156 12.859375 -27.910156 C 12.578125 -27.910156 12.296875 -27.910156 12.019531 -27.832031 C 11.820312 -27.75 11.621094 -27.75 11.421875 -27.75 C 10.941406 -27.710938 10.460938 -27.671875 9.941406 -27.671875 C 9.824219 -27.632812 9.703125 -27.632812 9.582031 -27.59375 C 9.542969 -27.59375 9.464844 -27.511719 9.421875 -27.472656 C 9.34375 -27.390625 9.304688 -27.191406 9.382812 -27.113281 C 9.421875 -27.074219 9.503906 -26.992188 9.542969 -26.992188 C 9.78125 -26.953125 10.0625 -26.953125 10.300781 -26.953125 C 10.660156 -26.953125 11.019531 -26.953125 11.378906 -26.953125 C 11.621094 -26.914062 11.820312 -26.714844 11.859375 -26.472656 C 11.859375 -26.3125 11.859375 -26.195312 11.859375 -26.074219 C 11.859375 -25.753906 11.78125 -25.4375 11.738281 -25.117188 C 11.621094 -24.71875 11.539062 -24.359375 11.421875 -23.957031 C 11.300781 -23.597656 11.261719 -23.238281 11.101562 -22.921875 C 11.019531 -22.5625 10.941406 -22.203125 10.859375 -21.84375 C 10.742188 -21.324219 10.582031 -20.84375 10.421875 -20.324219 C 10.183594 -19.644531 9.941406 -18.96875 9.742188 -18.25 C 9.421875 -17.089844 9.105469 -15.933594 8.703125 -14.773438 C 8.703125 -14.695312 8.664062 -14.613281 8.664062 -14.535156 C 8.625 -14.054688 8.425781 -13.65625 8.304688 -13.21875 C 8.144531 -12.699219 7.984375 -12.140625 7.828125 -11.621094 C 7.667969 -11.101562 7.507812 -10.621094 7.386719 -10.101562 C 7.386719 -9.984375 7.347656 -9.863281 7.308594 -9.742188 C 7.1875 -9.464844 7.109375 -9.222656 7.027344 -8.945312 C 6.390625 -7.066406 5.789062 -5.152344 5.152344 -3.273438 C 5.03125 -2.914062 4.910156 -2.515625 4.75 -2.117188 C 4.710938 -1.957031 4.59375 -1.796875 4.433594 -1.636719 C 4.3125 -1.476562 4.152344 -1.359375 3.953125 -1.238281 Z M 13.257812 -9.863281 C 12.019531 -9.863281 10.941406 -9.863281 9.863281 -9.863281 C 9.742188 -9.863281 9.625 -9.863281 9.503906 -9.941406 C 9.421875 -9.984375 9.34375 -10.023438 9.382812 -10.101562 C 9.382812 -10.222656 9.382812 -10.382812 9.421875 -10.460938 C 9.863281 -11.378906 10.101562 -12.378906 10.34375 -13.335938 C 10.542969 -14.175781 10.78125 -15.015625 11.019531 -15.8125 C 11.378906 -16.851562 11.699219 -17.890625 12.097656 -18.886719 C 12.296875 -19.285156 12.339844 -19.726562 12.5 -20.164062 C 12.578125 -20.445312 12.65625 -20.722656 12.738281 -20.964844 C 12.777344 -21.164062 12.859375 -21.363281 12.9375 -21.523438 C 13.097656 -21.84375 13.175781 -22.121094 13.257812 -22.441406 C 13.375 -22.878906 13.457031 -23.320312 13.617188 -23.757812 C 13.617188 -23.796875 13.695312 -23.878906 13.777344 -23.917969 C 13.816406 -23.957031 13.894531 -23.957031 13.976562 -23.839844 C 14.015625 -23.757812 14.09375 -23.640625 14.136719 -23.519531 C 14.253906 -23.238281 14.375 -22.960938 14.453125 -22.640625 C 14.574219 -22.28125 14.65625 -21.921875 14.773438 -21.5625 C 14.894531 -21.125 15.054688 -20.644531 15.214844 -20.203125 C 15.414062 -19.726562 15.652344 -19.246094 15.890625 -18.765625 C 16.011719 -18.488281 16.171875 -18.167969 16.292969 -17.890625 C 16.371094 -17.6875 16.492188 -17.53125 16.570312 -17.328125 C 16.769531 -16.652344 17.128906 -16.011719 17.449219 -15.332031 C 17.648438 -14.8125 17.890625 -14.335938 18.128906 -13.777344 C 18.207031 -13.578125 18.289062 -13.335938 18.367188 -13.097656 C 18.566406 -12.339844 18.886719 -11.578125 19.207031 -10.859375 C 19.285156 -10.703125 19.367188 -10.582031 19.445312 -10.421875 C 19.484375 -10.300781 19.40625 -10.183594 19.285156 -10.140625 C 19.046875 -10.140625 18.808594 -10.140625 18.566406 -10.140625 C 18.046875 -10.140625 17.53125 -10.101562 17.011719 -10.023438 C 16.851562 -9.984375 16.691406 -9.984375 16.53125 -9.984375 C 15.375 -9.941406 14.253906 -9.863281 13.257812 -9.863281 Z M 13.257812 -9.863281 "/></g></g></g><g fill="rgb(0%, 0%, 0%)" fill-opacity="1"><g transform="translate(129.068499, 196.333587)"><g><path d="M 10.183594 -5.910156 C 10.101562 -6.269531 9.984375 -6.546875 9.902344 -6.867188 C 9.703125 -7.667969 9.582031 -8.464844 9.582031 -9.304688 C 9.582031 -9.78125 9.582031 -10.261719 9.582031 -10.742188 C 9.582031 -10.941406 9.582031 -11.140625 9.542969 -11.339844 C 9.421875 -11.859375 9.464844 -12.417969 9.464844 -12.9375 C 9.464844 -15.414062 9.464844 -17.890625 9.464844 -20.363281 C 9.464844 -21.003906 9.464844 -21.640625 9.464844 -22.28125 C 9.464844 -22.519531 9.464844 -22.761719 9.503906 -23 C 9.542969 -23.398438 9.582031 -23.757812 9.582031 -24.117188 C 9.582031 -24.597656 9.625 -25.078125 9.625 -25.554688 C 9.625 -25.753906 9.703125 -25.953125 9.824219 -26.15625 C 9.984375 -26.433594 10.183594 -26.632812 10.5 -26.753906 C 10.820312 -26.875 11.140625 -26.953125 11.460938 -27.03125 C 11.699219 -27.03125 11.9375 -27.152344 12.140625 -27.273438 C 12.21875 -27.3125 12.21875 -27.511719 12.179688 -27.59375 C 12.097656 -27.671875 12.019531 -27.710938 11.9375 -27.710938 C 11.738281 -27.710938 11.539062 -27.75 11.339844 -27.75 C 9.265625 -27.75 7.226562 -27.75 5.152344 -27.75 C 4.113281 -27.75 3.113281 -27.75 2.117188 -27.75 C 1.957031 -27.75 1.796875 -27.75 1.636719 -27.710938 C 1.515625 -27.671875 1.398438 -27.632812 1.316406 -27.550781 C 1.277344 -27.472656 1.238281 -27.390625 1.199219 -27.351562 C 1.199219 -27.273438 1.359375 -27.113281 1.4375 -27.074219 C 1.515625 -27.074219 1.597656 -27.03125 1.675781 -27.03125 C 2.15625 -26.992188 2.636719 -26.875 3.113281 -26.753906 C 3.3125 -26.671875 3.472656 -26.554688 3.632812 -26.433594 C 3.671875 -26.394531 3.714844 -26.3125 3.753906 -26.234375 C 3.753906 -26.074219 3.792969 -25.914062 3.792969 -25.753906 C 3.792969 -24.757812 3.753906 -23.796875 3.792969 -22.839844 C 3.832031 -21.125 3.832031 -19.40625 3.832031 -17.730469 C 3.792969 -16.453125 3.792969 -15.214844 3.792969 -13.9375 C 3.792969 -13.015625 3.792969 -12.097656 3.792969 -11.140625 C 3.792969 -10.222656 3.753906 -9.265625 3.753906 -8.34375 C 3.753906 -7.785156 3.792969 -7.226562 3.992188 -6.667969 C 4.113281 -5.871094 4.433594 -5.109375 4.832031 -4.390625 C 4.871094 -4.3125 4.910156 -4.273438 4.953125 -4.191406 C 5.191406 -3.753906 5.46875 -3.355469 5.789062 -3.035156 C 5.988281 -2.796875 6.1875 -2.636719 6.390625 -2.394531 C 6.828125 -1.957031 7.308594 -1.597656 7.785156 -1.238281 C 7.90625 -1.15625 8.066406 -1.039062 8.226562 -1 C 8.746094 -0.796875 9.265625 -0.558594 9.78125 -0.359375 C 10.0625 -0.28125 10.34375 -0.238281 10.621094 -0.199219 C 10.980469 -0.160156 11.339844 -0.160156 11.699219 -0.121094 C 12.5 0.0390625 13.335938 0.078125 14.136719 0.078125 C 14.734375 0.0390625 15.332031 0.0390625 15.972656 0.0390625 C 16.410156 0 16.851562 0 17.289062 -0.121094 C 17.449219 -0.160156 17.609375 -0.160156 17.769531 -0.160156 C 18.328125 -0.238281 18.886719 -0.238281 19.445312 -0.398438 C 19.484375 -0.4375 19.527344 -0.4375 19.566406 -0.4375 C 20.046875 -0.398438 20.445312 -0.597656 20.882812 -0.71875 C 21.125 -0.796875 21.402344 -0.917969 21.683594 -1 C 22 -1.15625 22.320312 -1.316406 22.640625 -1.515625 C 22.960938 -1.757812 23.28125 -1.996094 23.597656 -2.234375 C 24 -2.515625 24.316406 -2.875 24.558594 -3.3125 C 24.71875 -3.59375 24.835938 -3.914062 24.996094 -4.191406 C 25.355469 -4.792969 25.476562 -5.46875 25.636719 -6.148438 C 25.753906 -6.988281 25.914062 -7.828125 25.875 -8.664062 C 25.875 -8.945312 25.875 -9.222656 25.875 -9.542969 C 25.875 -12.257812 25.875 -14.972656 25.875 -17.6875 C 25.875 -18.128906 25.875 -18.566406 25.875 -19.007812 C 25.875 -19.484375 25.875 -19.964844 25.753906 -20.484375 C 25.714844 -20.683594 25.714844 -20.964844 25.714844 -21.203125 C 25.675781 -21.683594 25.675781 -22.160156 25.636719 -22.640625 C 25.636719 -22.878906 25.636719 -23.160156 25.59375 -23.359375 C 25.476562 -24.117188 25.515625 -24.835938 25.515625 -25.554688 C 25.515625 -25.796875 25.554688 -26.035156 25.636719 -26.273438 C 25.675781 -26.433594 25.796875 -26.554688 25.914062 -26.632812 C 26.195312 -26.792969 26.515625 -26.953125 26.832031 -26.992188 C 26.992188 -26.992188 27.152344 -26.992188 27.3125 -27.03125 C 27.75 -27.191406 28.191406 -27.191406 28.628906 -27.234375 C 28.710938 -27.234375 28.789062 -27.273438 28.871094 -27.273438 C 28.949219 -27.3125 29.109375 -27.472656 29.070312 -27.550781 C 29.03125 -27.632812 28.988281 -27.710938 28.949219 -27.75 C 28.871094 -27.792969 28.789062 -27.832031 28.710938 -27.832031 C 28.429688 -27.910156 28.152344 -27.910156 27.871094 -27.871094 C 27.234375 -27.792969 26.59375 -27.792969 25.914062 -27.75 C 25.15625 -27.75 24.398438 -27.75 23.640625 -27.710938 C 23 -27.671875 22.402344 -27.671875 21.800781 -27.710938 C 21.28125 -27.75 20.765625 -27.75 20.203125 -27.671875 C 20.125 -27.671875 20.046875 -27.671875 20.003906 -27.632812 C 19.886719 -27.59375 19.765625 -27.511719 19.765625 -27.390625 C 19.726562 -27.234375 19.84375 -27.03125 19.964844 -26.992188 C 20.046875 -26.992188 20.125 -26.953125 20.203125 -26.953125 C 20.523438 -26.953125 20.84375 -26.953125 21.203125 -26.914062 C 21.363281 -26.914062 21.523438 -26.914062 21.683594 -26.875 C 22.042969 -26.792969 22.402344 -26.792969 22.761719 -26.753906 C 22.921875 -26.714844 23.078125 -26.671875 23.199219 -26.59375 C 23.320312 -26.554688 23.4375 -26.515625 23.558594 -26.433594 C 23.757812 -26.3125 23.917969 -26.113281 23.917969 -25.875 C 23.917969 -25.675781 23.917969 -25.515625 23.917969 -25.355469 C 23.917969 -22.878906 23.957031 -20.445312 24 -17.96875 C 24 -17.128906 24.039062 -16.332031 24.039062 -15.53125 C 24.078125 -14.933594 24.039062 -14.375 24.15625 -13.816406 C 24.15625 -13.695312 24.15625 -13.578125 24.15625 -13.457031 C 24.15625 -12.417969 24.199219 -11.339844 24.199219 -10.300781 C 24.199219 -9.984375 24.199219 -9.664062 24.117188 -9.34375 C 24.039062 -8.863281 24.039062 -8.34375 24 -7.867188 C 23.957031 -7.425781 24 -6.988281 23.917969 -6.546875 C 23.71875 -5.828125 23.480469 -5.152344 23.160156 -4.433594 C 22.960938 -4.191406 22.71875 -3.914062 22.480469 -3.632812 C 22.402344 -3.515625 22.28125 -3.394531 22.160156 -3.273438 C 21.761719 -2.953125 21.324219 -2.59375 20.882812 -2.355469 C 20.445312 -2.117188 20.003906 -1.917969 19.527344 -1.875 C 19.328125 -1.875 19.167969 -1.835938 19.007812 -1.835938 C 18.449219 -1.675781 17.890625 -1.675781 17.328125 -1.675781 C 16.890625 -1.675781 16.453125 -1.71875 16.011719 -1.71875 C 15.453125 -1.71875 14.933594 -1.757812 14.414062 -1.957031 C 14.253906 -2.035156 14.054688 -2.117188 13.894531 -2.195312 C 12.738281 -2.835938 11.738281 -3.671875 10.980469 -4.75 C 10.742188 -5.109375 10.5 -5.46875 10.183594 -5.910156 Z M 10.183594 -5.910156 "/></g></g></g><g fill="rgb(0%, 0%, 0%)" fill-opacity="1"><g transform="translate(159.255874, 196.333587)"><g><path d="M 5.789062 -26.433594 C 6.546875 -26.433594 7.308594 -26.433594 8.105469 -26.433594 C 8.1875 -26.433594 8.265625 -26.433594 8.34375 -26.394531 C 8.746094 -26.273438 9.105469 -25.835938 9.105469 -25.394531 C 9.105469 -24.957031 9.105469 -24.515625 9.105469 -24.078125 C 9.105469 -23.480469 9.105469 -22.921875 9.144531 -22.359375 C 9.144531 -21.761719 9.144531 -21.164062 9.144531 -20.523438 C 9.144531 -16.332031 9.105469 -12.097656 9.105469 -7.90625 C 9.105469 -7.667969 9.105469 -7.425781 9.0625 -7.1875 C 9.023438 -6.789062 9.023438 -6.429688 9.023438 -6.070312 C 8.984375 -4.910156 8.945312 -3.714844 8.90625 -2.554688 C 8.90625 -2.4375 8.90625 -2.316406 8.863281 -2.195312 C 8.785156 -1.875 8.664062 -1.597656 8.34375 -1.398438 C 8.226562 -1.316406 8.066406 -1.238281 7.90625 -1.199219 C 7.625 -1.117188 7.308594 -1 6.988281 -0.917969 C 6.667969 -0.796875 6.390625 -0.71875 6.070312 -0.597656 C 5.949219 -0.558594 5.871094 -0.480469 5.789062 -0.359375 C 5.710938 -0.238281 5.789062 0 5.949219 0 C 6.070312 0.0390625 6.1875 0.078125 6.308594 0.078125 C 9.664062 0.0390625 13.015625 0.0390625 16.371094 0 C 16.492188 0 16.609375 0 16.730469 0 C 16.890625 -0.0390625 17.050781 -0.078125 17.210938 -0.121094 C 17.25 -0.160156 17.289062 -0.160156 17.328125 -0.199219 C 17.371094 -0.238281 17.410156 -0.320312 17.449219 -0.398438 C 17.488281 -0.4375 17.371094 -0.679688 17.289062 -0.679688 C 17.050781 -0.757812 16.8125 -0.839844 16.570312 -0.878906 C 16.132812 -0.957031 15.734375 -1.15625 15.332031 -1.316406 C 15.214844 -1.398438 15.132812 -1.4375 15.015625 -1.515625 C 14.855469 -1.675781 14.734375 -1.835938 14.734375 -2.035156 C 14.734375 -3.113281 14.695312 -4.152344 14.695312 -5.191406 C 14.773438 -7.585938 14.8125 -9.984375 14.773438 -12.378906 C 14.773438 -15.613281 14.773438 -18.847656 14.773438 -22.121094 C 14.773438 -22.679688 14.773438 -23.238281 14.8125 -23.796875 C 14.8125 -24.796875 14.8125 -24.796875 15.015625 -25.753906 C 15.054688 -25.996094 15.253906 -26.15625 15.492188 -26.234375 C 15.574219 -26.234375 15.652344 -26.273438 15.734375 -26.273438 C 15.851562 -26.273438 15.972656 -26.273438 16.09375 -26.273438 C 16.769531 -26.273438 17.488281 -26.234375 18.167969 -26.234375 C 18.367188 -26.234375 18.566406 -26.15625 18.765625 -26.113281 C 19.085938 -26.035156 19.367188 -25.914062 19.644531 -25.753906 C 19.765625 -25.714844 19.886719 -25.636719 19.964844 -25.59375 C 20.40625 -25.277344 20.765625 -24.875 21.042969 -24.398438 C 21.125 -24.199219 21.242188 -24 21.363281 -23.757812 C 21.601562 -23.359375 21.761719 -22.878906 21.882812 -22.402344 C 21.921875 -22.042969 22.042969 -21.722656 22.160156 -21.363281 C 22.160156 -21.324219 22.203125 -21.28125 22.242188 -21.28125 C 22.28125 -21.203125 22.359375 -21.164062 22.441406 -21.164062 C 22.480469 -21.125 22.519531 -21.125 22.5625 -21.125 C 22.839844 -21.125 23.039062 -21.28125 23.039062 -21.523438 C 23.078125 -22.121094 23 -22.679688 22.921875 -23.238281 C 22.878906 -23.597656 22.839844 -23.957031 22.839844 -24.316406 C 22.800781 -25.035156 22.761719 -25.796875 22.761719 -26.515625 C 22.71875 -26.753906 22.71875 -26.992188 22.71875 -27.234375 C 22.679688 -27.390625 22.640625 -27.550781 22.5625 -27.710938 C 22.480469 -27.832031 22.402344 -27.871094 22.28125 -27.910156 C 22.121094 -27.953125 21.960938 -27.953125 21.800781 -27.953125 C 21.164062 -27.992188 20.484375 -27.992188 19.84375 -27.992188 C 16.210938 -27.953125 12.578125 -27.953125 8.90625 -27.953125 C 6.988281 -27.953125 5.109375 -27.953125 3.195312 -27.910156 C 2.835938 -27.910156 2.476562 -27.910156 2.117188 -27.910156 C 1.957031 -27.871094 1.796875 -27.832031 1.636719 -27.75 C 1.515625 -27.671875 1.398438 -27.472656 1.398438 -27.351562 C 1.359375 -27.234375 1.359375 -27.113281 1.359375 -26.992188 C 1.316406 -26.515625 1.316406 -26.035156 1.238281 -25.515625 C 1.199219 -25.277344 1.199219 -25.035156 1.199219 -24.796875 C 1.15625 -24.359375 1.15625 -23.917969 1.117188 -23.480469 C 1.117188 -22.960938 1.117188 -22.402344 0.957031 -21.921875 C 0.917969 -21.761719 0.957031 -21.601562 1 -21.441406 C 1.117188 -21.125 1.4375 -21.042969 1.71875 -21.203125 C 1.757812 -21.203125 1.796875 -21.242188 1.796875 -21.28125 C 1.957031 -21.523438 2.078125 -21.800781 2.078125 -22.082031 C 2.15625 -22.679688 2.394531 -23.238281 2.675781 -23.796875 C 2.835938 -24.078125 2.996094 -24.359375 3.15625 -24.636719 C 3.3125 -24.875 3.472656 -25.078125 3.671875 -25.277344 C 3.875 -25.4375 4.03125 -25.59375 4.234375 -25.753906 C 4.511719 -25.996094 4.832031 -26.195312 5.191406 -26.273438 C 5.390625 -26.3125 5.589844 -26.394531 5.789062 -26.433594 Z M 5.789062 -26.433594 "/></g></g></g><g fill="rgb(0%, 0%, 0%)" fill-opacity="1"><g transform="translate(183.214115, 196.333587)"><g><path d="M 11.0625 -13.457031 C 11.179688 -12.699219 11.140625 -12.058594 11.300781 -11.421875 C 11.300781 -11.339844 11.300781 -11.261719 11.300781 -11.179688 C 11.300781 -9.902344 11.339844 -8.664062 11.339844 -7.386719 C 11.339844 -5.910156 11.339844 -4.390625 11.378906 -2.914062 C 11.421875 -2.675781 11.378906 -2.394531 11.378906 -2.15625 C 11.378906 -2.078125 11.339844 -1.996094 11.300781 -1.957031 C 11.179688 -1.636719 10.941406 -1.398438 10.621094 -1.277344 C 10.542969 -1.238281 10.421875 -1.199219 10.300781 -1.15625 C 9.984375 -1.078125 9.664062 -1 9.34375 -0.917969 C 9.144531 -0.839844 8.863281 -0.558594 8.90625 -0.238281 C 8.945312 -0.160156 8.945312 -0.078125 9.023438 -0.0390625 C 9.0625 -0.0390625 9.105469 0 9.144531 0 C 9.464844 0.0390625 9.78125 0.0390625 10.101562 0.0390625 C 12.9375 0.0390625 15.773438 0.0390625 18.609375 0 C 18.6875 0 18.765625 0 18.847656 0 C 19.007812 0 19.085938 -0.078125 19.125 -0.199219 C 19.246094 -0.398438 19.207031 -0.640625 19.085938 -0.757812 C 19.007812 -0.839844 18.96875 -0.878906 18.886719 -0.878906 C 18.25 -1 17.730469 -1.238281 17.210938 -1.558594 C 16.929688 -1.71875 16.769531 -1.957031 16.769531 -2.277344 C 16.769531 -2.4375 16.730469 -2.59375 16.730469 -2.753906 C 16.730469 -4.632812 16.691406 -6.46875 16.691406 -8.34375 C 16.652344 -9.34375 16.652344 -10.382812 16.730469 -11.378906 C 16.769531 -11.738281 16.730469 -12.097656 16.769531 -12.5 C 16.769531 -13.21875 16.769531 -13.9375 16.769531 -14.65625 C 16.769531 -15.691406 16.691406 -15.453125 17.171875 -16.292969 C 17.25 -16.410156 17.328125 -16.570312 17.410156 -16.691406 C 17.488281 -16.890625 17.609375 -17.050781 17.730469 -17.210938 C 18.046875 -17.609375 18.289062 -18.007812 18.527344 -18.449219 C 18.6875 -18.726562 18.808594 -19.007812 18.96875 -19.285156 C 19.285156 -19.84375 19.566406 -20.363281 19.886719 -20.882812 C 20.046875 -21.164062 20.285156 -21.402344 20.445312 -21.683594 C 20.523438 -21.761719 20.605469 -21.882812 20.644531 -21.960938 C 20.921875 -22.480469 21.28125 -22.921875 21.601562 -23.359375 C 22.042969 -23.878906 22.441406 -24.398438 22.839844 -24.875 C 23.078125 -25.195312 23.359375 -25.515625 23.640625 -25.796875 C 23.796875 -25.953125 23.957031 -26.074219 24.117188 -26.195312 C 24.757812 -26.59375 25.476562 -26.914062 26.234375 -26.992188 C 26.515625 -27.03125 26.714844 -27.152344 26.914062 -27.273438 C 26.953125 -27.351562 26.992188 -27.433594 27.03125 -27.472656 C 27.113281 -27.59375 27.074219 -27.632812 26.992188 -27.671875 C 26.914062 -27.710938 26.832031 -27.75 26.753906 -27.75 C 26.035156 -27.792969 25.316406 -27.792969 24.558594 -27.75 C 23.359375 -27.710938 22.121094 -27.710938 20.921875 -27.75 C 20.644531 -27.792969 20.363281 -27.792969 20.085938 -27.871094 C 19.726562 -27.953125 19.367188 -27.953125 19.007812 -27.953125 C 18.40625 -27.953125 17.847656 -27.910156 17.289062 -27.910156 C 17.171875 -27.910156 17.050781 -27.871094 16.929688 -27.832031 C 16.8125 -27.792969 16.769531 -27.671875 16.691406 -27.550781 C 16.652344 -27.472656 16.769531 -27.273438 16.851562 -27.273438 C 17.289062 -27.152344 17.730469 -27.03125 18.167969 -26.992188 C 18.648438 -26.992188 19.125 -26.914062 19.605469 -26.792969 C 19.726562 -26.753906 19.84375 -26.714844 19.925781 -26.671875 C 20.125 -26.59375 20.285156 -26.433594 20.40625 -26.3125 C 20.722656 -25.953125 20.765625 -25.515625 20.5625 -25.15625 C 20.523438 -25.035156 20.445312 -24.957031 20.40625 -24.835938 C 20.003906 -24.15625 19.566406 -23.558594 19.125 -22.921875 C 18.96875 -22.71875 18.808594 -22.5625 18.6875 -22.320312 C 18.207031 -21.484375 17.609375 -20.722656 17.050781 -19.925781 C 16.570312 -19.246094 16.09375 -18.609375 15.613281 -17.96875 C 15.53125 -17.929688 15.492188 -17.847656 15.414062 -17.808594 C 15.332031 -17.730469 15.171875 -17.730469 15.09375 -17.847656 C 14.855469 -18.207031 14.574219 -18.566406 14.335938 -18.925781 C 13.816406 -19.726562 13.375 -20.523438 12.9375 -21.363281 C 12.816406 -21.5625 12.738281 -21.800781 12.578125 -22 C 12.179688 -22.5625 11.898438 -23.199219 11.539062 -23.757812 C 11.5 -23.839844 11.460938 -23.917969 11.421875 -24 C 11.300781 -24.4375 11.101562 -24.796875 10.941406 -25.234375 C 10.859375 -25.476562 10.859375 -25.714844 10.980469 -25.953125 C 11.019531 -26.074219 11.0625 -26.15625 11.140625 -26.273438 C 11.261719 -26.515625 11.460938 -26.714844 11.738281 -26.792969 C 11.980469 -26.914062 12.21875 -26.992188 12.457031 -26.992188 C 12.617188 -27.03125 12.777344 -27.03125 12.9375 -27.074219 C 13.058594 -27.113281 13.136719 -27.152344 13.21875 -27.273438 C 13.335938 -27.390625 13.296875 -27.59375 13.136719 -27.671875 C 13.058594 -27.75 12.9375 -27.792969 12.816406 -27.792969 C 12.019531 -27.792969 11.261719 -27.792969 10.5 -27.792969 C 9.703125 -27.75 8.863281 -27.75 8.066406 -27.75 C 7.585938 -27.710938 7.109375 -27.710938 6.628906 -27.832031 C 6.269531 -27.871094 5.871094 -27.910156 5.511719 -27.910156 C 4.191406 -27.992188 2.835938 -27.953125 1.515625 -27.953125 C 1.398438 -27.953125 1.277344 -27.910156 1.15625 -27.910156 C 1 -27.871094 0.839844 -27.792969 0.71875 -27.671875 C 0.640625 -27.550781 0.597656 -27.351562 0.679688 -27.191406 C 0.71875 -27.074219 0.796875 -27.03125 0.917969 -26.992188 C 1.359375 -26.953125 1.796875 -26.914062 2.234375 -26.792969 C 2.515625 -26.714844 2.796875 -26.59375 2.996094 -26.433594 C 3.433594 -26.15625 3.753906 -25.796875 4.03125 -25.394531 C 4.511719 -24.636719 4.992188 -23.917969 5.46875 -23.121094 C 6.03125 -22.203125 6.589844 -21.242188 7.109375 -20.285156 C 7.386719 -19.804688 7.667969 -19.328125 7.984375 -18.847656 C 8.34375 -18.289062 8.746094 -17.808594 8.984375 -17.171875 C 9.023438 -17.128906 9.023438 -17.128906 9.0625 -17.089844 C 9.304688 -16.730469 9.503906 -16.292969 9.742188 -15.933594 C 10.261719 -15.171875 10.621094 -14.296875 11.0625 -13.457031 Z M 11.0625 -13.457031 "/></g></g></g><g fill="rgb(0%, 0%, 0%)" fill-opacity="1"><g transform="translate(210.925799, 196.333587)"><g/></g></g><g fill="rgb(0%, 0%, 0%)" fill-opacity="1"><g transform="translate(218.911873, 196.333587)"><g><path d="M 6.390625 0.28125 C 8.746094 0.28125 10.382812 0.238281 12.058594 0.238281 C 12.21875 0.238281 12.378906 0.238281 12.539062 0.199219 C 12.699219 0.199219 12.859375 0.160156 13.015625 0.121094 C 13.058594 0.121094 13.097656 0.078125 13.136719 0.0390625 C 13.257812 0 13.335938 -0.160156 13.296875 -0.238281 C 13.257812 -0.359375 13.175781 -0.4375 13.058594 -0.480469 C 12.898438 -0.519531 12.738281 -0.597656 12.578125 -0.597656 C 11.980469 -0.71875 11.421875 -0.957031 10.859375 -1.238281 C 10.660156 -1.316406 10.5 -1.558594 10.5 -1.796875 C 10.460938 -2.914062 10.460938 -3.992188 10.460938 -5.070312 C 10.460938 -6.46875 10.5 -7.828125 10.542969 -9.222656 C 10.542969 -9.902344 10.542969 -10.582031 10.542969 -11.300781 C 10.5 -11.578125 10.5 -11.859375 10.5 -12.140625 C 10.5 -12.21875 10.542969 -12.296875 10.542969 -12.378906 C 10.542969 -12.578125 10.703125 -12.777344 10.902344 -12.816406 C 11.460938 -12.816406 12.019531 -12.859375 12.617188 -12.859375 C 13.097656 -12.898438 13.578125 -12.898438 14.054688 -12.976562 C 14.214844 -13.015625 14.375 -13.015625 14.535156 -13.058594 C 15.613281 -13.097656 16.730469 -13.136719 17.808594 -13.136719 C 19.007812 -13.097656 20.164062 -13.097656 21.363281 -13.097656 C 21.523438 -13.097656 21.683594 -13.058594 21.84375 -13.058594 C 21.960938 -13.058594 22.121094 -12.898438 22.121094 -12.738281 C 22.121094 -12.578125 22.121094 -12.457031 22.121094 -12.339844 C 22.121094 -10.023438 22.160156 -7.746094 22.203125 -5.429688 C 22.242188 -4.191406 22.203125 -2.996094 22.160156 -1.757812 C 22.160156 -1.558594 22.042969 -1.359375 21.84375 -1.277344 C 21.28125 -1 20.683594 -0.71875 20.046875 -0.640625 C 19.925781 -0.640625 19.804688 -0.558594 19.6875 -0.519531 C 19.605469 -0.519531 19.566406 -0.4375 19.527344 -0.359375 C 19.40625 -0.238281 19.484375 -0.0390625 19.644531 0 C 19.765625 0.078125 19.84375 0.078125 20.003906 0.078125 C 20.523438 0.121094 21.042969 0.121094 21.5625 0.121094 C 22.839844 0.121094 24.078125 0.121094 25.355469 0.121094 C 25.554688 0.121094 25.753906 0.121094 25.953125 0.160156 C 26.273438 0.238281 26.59375 0.28125 26.914062 0.28125 C 28.191406 0.28125 29.507812 0.28125 30.785156 0.28125 C 30.90625 0.28125 31.027344 0.238281 31.144531 0.238281 C 31.304688 0.238281 31.386719 0 31.34375 -0.121094 C 31.304688 -0.199219 31.265625 -0.28125 31.1875 -0.320312 C 30.828125 -0.480469 30.425781 -0.640625 30.027344 -0.71875 C 29.707031 -0.757812 29.390625 -0.878906 29.109375 -0.957031 C 28.910156 -1.039062 28.75 -1.15625 28.550781 -1.238281 C 28.390625 -1.359375 28.269531 -1.515625 28.230469 -1.757812 C 28.191406 -2.035156 28.191406 -2.316406 28.109375 -2.59375 C 28.03125 -2.953125 27.992188 -3.3125 27.992188 -3.671875 C 27.992188 -5.269531 27.992188 -6.828125 27.992188 -8.425781 C 27.953125 -11.019531 27.953125 -13.617188 27.953125 -16.210938 C 27.910156 -18.566406 27.871094 -20.921875 27.953125 -23.238281 C 27.992188 -23.558594 27.992188 -23.839844 27.992188 -24.117188 C 27.992188 -24.675781 27.992188 -25.234375 27.992188 -25.796875 C 27.992188 -25.914062 27.992188 -26.074219 27.992188 -26.195312 C 28.03125 -26.3125 28.109375 -26.394531 28.191406 -26.472656 C 28.351562 -26.554688 28.46875 -26.671875 28.628906 -26.714844 C 29.109375 -26.832031 29.546875 -26.953125 30.066406 -26.992188 C 30.1875 -26.992188 30.308594 -27.03125 30.386719 -27.074219 C 30.546875 -27.113281 30.585938 -27.351562 30.46875 -27.472656 C 30.386719 -27.59375 30.226562 -27.671875 30.066406 -27.710938 C 29.949219 -27.710938 29.828125 -27.710938 29.707031 -27.710938 C 26.515625 -27.710938 23.28125 -27.710938 20.085938 -27.710938 C 19.964844 -27.710938 19.84375 -27.710938 19.726562 -27.671875 C 19.6875 -27.671875 19.644531 -27.671875 19.605469 -27.632812 C 19.484375 -27.59375 19.40625 -27.390625 19.527344 -27.234375 C 19.605469 -27.113281 19.765625 -27.03125 19.925781 -26.992188 C 20.324219 -26.953125 20.722656 -26.832031 21.082031 -26.714844 C 21.402344 -26.632812 21.601562 -26.472656 21.761719 -26.234375 C 21.84375 -26.113281 21.921875 -26.035156 21.921875 -25.914062 C 21.960938 -25.355469 22.082031 -24.875 22.082031 -24.316406 C 22.121094 -23.199219 22.203125 -22.042969 22.160156 -20.921875 C 22.160156 -20.003906 22.203125 -19.046875 22.160156 -18.128906 C 22.160156 -17.171875 22.121094 -16.171875 22.121094 -15.214844 C 22.121094 -15.132812 22.121094 -15.054688 22.082031 -14.972656 C 22.082031 -14.894531 21.960938 -14.734375 21.882812 -14.695312 C 21.800781 -14.65625 21.722656 -14.613281 21.640625 -14.613281 C 21.28125 -14.613281 20.921875 -14.574219 20.5625 -14.574219 C 19.046875 -14.574219 17.570312 -14.535156 16.050781 -14.535156 C 15.332031 -14.496094 14.574219 -14.535156 13.855469 -14.375 C 13.777344 -14.375 13.695312 -14.375 13.617188 -14.375 C 12.777344 -14.335938 11.9375 -14.296875 11.0625 -14.335938 C 10.980469 -14.335938 10.902344 -14.375 10.820312 -14.375 C 10.742188 -14.375 10.703125 -14.453125 10.660156 -14.535156 C 10.582031 -14.65625 10.542969 -14.8125 10.542969 -14.972656 C 10.5 -17.6875 10.5 -20.445312 10.542969 -23.160156 C 10.542969 -23.398438 10.542969 -23.640625 10.582031 -23.878906 C 10.660156 -24.398438 10.660156 -24.917969 10.703125 -25.4375 C 10.703125 -25.59375 10.703125 -25.753906 10.742188 -25.914062 C 10.742188 -25.996094 10.78125 -26.074219 10.820312 -26.15625 C 10.980469 -26.394531 11.179688 -26.59375 11.460938 -26.714844 C 11.621094 -26.792969 11.820312 -26.914062 12.019531 -26.953125 C 12.417969 -26.992188 12.816406 -27.113281 13.175781 -27.234375 C 13.296875 -27.273438 13.335938 -27.472656 13.257812 -27.550781 C 13.175781 -27.710938 13.058594 -27.792969 12.898438 -27.832031 C 12.738281 -27.871094 12.578125 -27.871094 12.417969 -27.871094 C 9.421875 -27.871094 6.429688 -27.871094 3.394531 -27.871094 C 3.234375 -27.871094 3.074219 -27.871094 2.914062 -27.871094 C 2.714844 -27.832031 2.515625 -27.75 2.355469 -27.671875 C 2.316406 -27.632812 2.316406 -27.59375 2.277344 -27.550781 C 2.15625 -27.433594 2.195312 -27.234375 2.355469 -27.191406 C 2.515625 -27.113281 2.675781 -27.074219 2.835938 -27.03125 C 3.035156 -26.992188 3.234375 -26.953125 3.433594 -26.953125 C 3.714844 -26.914062 3.953125 -26.792969 4.234375 -26.714844 C 4.273438 -26.671875 4.3125 -26.671875 4.351562 -26.632812 C 4.511719 -26.515625 4.632812 -26.394531 4.671875 -26.15625 C 4.671875 -25.675781 4.671875 -25.195312 4.75 -24.71875 C 4.792969 -24.238281 4.792969 -23.796875 4.792969 -23.359375 C 4.832031 -22.480469 4.832031 -21.5625 4.832031 -20.683594 C 4.832031 -17.6875 4.832031 -14.695312 4.832031 -11.699219 C 4.832031 -10.621094 4.792969 -9.582031 4.792969 -8.503906 C 4.792969 -8.265625 4.792969 -8.027344 4.75 -7.785156 C 4.710938 -7.425781 4.710938 -7.066406 4.710938 -6.707031 C 4.671875 -5.710938 4.671875 -4.75 4.671875 -3.792969 C 4.632812 -3.15625 4.59375 -2.554688 4.550781 -1.957031 C 4.550781 -1.757812 4.433594 -1.558594 4.3125 -1.4375 C 4.113281 -1.199219 3.875 -1.039062 3.59375 -0.957031 C 3.234375 -0.878906 2.914062 -0.757812 2.554688 -0.640625 C 2.234375 -0.597656 1.957031 -0.480469 1.636719 -0.359375 C 1.515625 -0.320312 1.4375 -0.238281 1.359375 -0.121094 C 1.316406 -0.0390625 1.277344 0 1.316406 0.078125 C 1.359375 0.160156 1.398438 0.238281 1.476562 0.238281 C 1.675781 0.320312 1.875 0.320312 2.078125 0.320312 C 3.753906 0.28125 5.390625 0.28125 6.390625 0.28125 Z M 6.390625 0.28125 "/></g></g></g><g fill="rgb(0%, 0%, 0%)" fill-opacity="1"><g transform="translate(251.574939, 196.333587)"><g><path d="M 3.953125 -1.238281 C 3.3125 -1 2.636719 -0.878906 1.957031 -0.71875 C 1.757812 -0.640625 1.476562 -0.679688 1.238281 -0.640625 C 1.039062 -0.597656 0.878906 -0.519531 0.71875 -0.359375 C 0.640625 -0.320312 0.597656 -0.238281 0.640625 -0.160156 C 0.679688 -0.078125 0.71875 -0.0390625 0.796875 0 C 0.878906 0 0.957031 0.0390625 1.039062 0.0390625 C 1.359375 0.0390625 1.71875 0.0390625 2.035156 0.0390625 C 5.269531 0.0390625 8.503906 0.0390625 11.738281 0.0390625 C 12.019531 0.0390625 12.339844 0 12.617188 0 C 12.699219 0 12.738281 -0.0390625 12.816406 -0.0390625 C 12.976562 -0.078125 13.058594 -0.320312 12.976562 -0.4375 C 12.898438 -0.558594 12.816406 -0.640625 12.699219 -0.640625 C 12.097656 -0.71875 11.539062 -0.679688 10.980469 -0.839844 C 10.820312 -0.878906 10.660156 -0.839844 10.5 -0.878906 C 10.183594 -0.878906 9.863281 -0.878906 9.542969 -0.878906 C 9.34375 -0.917969 9.144531 -0.917969 8.945312 -1 C 8.625 -1.117188 8.304688 -1.117188 8.027344 -1.277344 C 7.90625 -1.316406 7.785156 -1.398438 7.707031 -1.4375 C 7.386719 -1.675781 7.1875 -1.957031 7.1875 -2.355469 C 7.1875 -2.636719 7.1875 -2.914062 7.308594 -3.195312 C 7.425781 -3.632812 7.546875 -4.074219 7.625 -4.511719 C 7.707031 -4.871094 7.828125 -5.191406 7.90625 -5.550781 C 7.984375 -5.828125 8.105469 -6.070312 8.1875 -6.347656 C 8.265625 -6.667969 8.34375 -6.988281 8.503906 -7.265625 C 8.585938 -7.546875 8.585938 -7.828125 8.703125 -8.105469 C 8.746094 -8.1875 8.785156 -8.226562 8.863281 -8.265625 C 8.984375 -8.34375 9.0625 -8.386719 9.183594 -8.386719 C 9.742188 -8.464844 10.261719 -8.464844 10.78125 -8.464844 C 11.378906 -8.464844 11.980469 -8.503906 12.578125 -8.585938 C 12.816406 -8.664062 13.097656 -8.664062 13.335938 -8.664062 C 14.933594 -8.703125 16.570312 -8.785156 18.167969 -8.785156 C 18.527344 -8.785156 18.925781 -8.785156 19.285156 -8.863281 C 19.367188 -8.863281 19.445312 -8.863281 19.527344 -8.863281 C 19.726562 -8.863281 19.925781 -8.785156 20.046875 -8.625 C 20.246094 -8.34375 20.40625 -8.066406 20.484375 -7.746094 C 20.765625 -6.90625 21.125 -6.109375 21.402344 -5.230469 C 21.441406 -5.109375 21.484375 -4.953125 21.523438 -4.792969 C 21.601562 -4.351562 21.722656 -3.914062 21.882812 -3.472656 C 22.082031 -2.953125 22.203125 -2.394531 22.441406 -1.875 C 22.480469 -1.757812 22.441406 -1.636719 22.402344 -1.558594 C 22.320312 -1.4375 22.28125 -1.316406 22.160156 -1.238281 C 21.960938 -1.117188 21.761719 -0.957031 21.523438 -0.917969 C 21.042969 -0.878906 20.5625 -0.71875 20.085938 -0.679688 C 20.003906 -0.679688 19.925781 -0.640625 19.84375 -0.640625 C 19.566406 -0.558594 19.527344 -0.199219 19.644531 -0.0390625 C 19.765625 0.121094 19.886719 0.160156 20.046875 0.238281 C 20.683594 0.28125 21.363281 0.28125 22 0.199219 C 22.71875 0.121094 23.4375 0.121094 24.15625 0.078125 C 26.15625 0.078125 28.152344 0.078125 30.148438 0.0390625 C 30.265625 0.0390625 30.386719 0.0390625 30.507812 0.0390625 C 30.746094 0.0390625 30.945312 -0.160156 31.027344 -0.398438 C 31.105469 -0.558594 30.984375 -0.839844 30.785156 -0.878906 C 30.507812 -0.957031 30.1875 -1.117188 29.867188 -1.117188 C 29.589844 -1.15625 29.308594 -1.277344 29.070312 -1.359375 C 28.710938 -1.476562 28.511719 -1.71875 28.351562 -2.035156 C 28.3125 -2.117188 28.269531 -2.234375 28.230469 -2.355469 C 27.792969 -3.433594 27.351562 -4.550781 27.03125 -5.671875 C 26.914062 -6.109375 26.753906 -6.507812 26.554688 -6.90625 C 26.472656 -7.109375 26.394531 -7.308594 26.355469 -7.46875 C 25.996094 -8.34375 25.636719 -9.222656 25.234375 -10.0625 C 25.035156 -10.421875 24.875 -10.78125 24.71875 -11.140625 C 24.558594 -11.578125 24.359375 -11.980469 24.238281 -12.378906 C 24.117188 -12.777344 23.917969 -13.136719 23.757812 -13.496094 C 23.757812 -13.535156 23.757812 -13.578125 23.71875 -13.617188 C 23.558594 -14.175781 23.398438 -14.695312 23.238281 -15.253906 C 22.878906 -16.410156 22.519531 -17.570312 22 -18.6875 C 21.761719 -19.246094 21.523438 -19.804688 21.324219 -20.363281 C 21.28125 -20.5625 21.203125 -20.765625 21.125 -20.921875 C 20.804688 -21.84375 20.40625 -22.761719 20.125 -23.679688 C 20.003906 -24.078125 19.84375 -24.4375 19.6875 -24.796875 C 19.484375 -25.195312 19.367188 -25.636719 19.125 -26.035156 C 18.925781 -26.3125 18.847656 -26.714844 18.6875 -26.992188 C 18.449219 -27.390625 18.128906 -27.632812 17.730469 -27.710938 C 17.609375 -27.710938 17.488281 -27.710938 17.371094 -27.710938 C 16.769531 -27.75 16.210938 -27.75 15.652344 -27.832031 C 15.453125 -27.871094 15.253906 -27.871094 15.054688 -27.871094 C 14.335938 -27.871094 13.578125 -27.910156 12.859375 -27.910156 C 12.578125 -27.910156 12.296875 -27.910156 12.019531 -27.832031 C 11.820312 -27.75 11.621094 -27.75 11.421875 -27.75 C 10.941406 -27.710938 10.460938 -27.671875 9.941406 -27.671875 C 9.824219 -27.632812 9.703125 -27.632812 9.582031 -27.59375 C 9.542969 -27.59375 9.464844 -27.511719 9.421875 -27.472656 C 9.34375 -27.390625 9.304688 -27.191406 9.382812 -27.113281 C 9.421875 -27.074219 9.503906 -26.992188 9.542969 -26.992188 C 9.78125 -26.953125 10.0625 -26.953125 10.300781 -26.953125 C 10.660156 -26.953125 11.019531 -26.953125 11.378906 -26.953125 C 11.621094 -26.914062 11.820312 -26.714844 11.859375 -26.472656 C 11.859375 -26.3125 11.859375 -26.195312 11.859375 -26.074219 C 11.859375 -25.753906 11.78125 -25.4375 11.738281 -25.117188 C 11.621094 -24.71875 11.539062 -24.359375 11.421875 -23.957031 C 11.300781 -23.597656 11.261719 -23.238281 11.101562 -22.921875 C 11.019531 -22.5625 10.941406 -22.203125 10.859375 -21.84375 C 10.742188 -21.324219 10.582031 -20.84375 10.421875 -20.324219 C 10.183594 -19.644531 9.941406 -18.96875 9.742188 -18.25 C 9.421875 -17.089844 9.105469 -15.933594 8.703125 -14.773438 C 8.703125 -14.695312 8.664062 -14.613281 8.664062 -14.535156 C 8.625 -14.054688 8.425781 -13.65625 8.304688 -13.21875 C 8.144531 -12.699219 7.984375 -12.140625 7.828125 -11.621094 C 7.667969 -11.101562 7.507812 -10.621094 7.386719 -10.101562 C 7.386719 -9.984375 7.347656 -9.863281 7.308594 -9.742188 C 7.1875 -9.464844 7.109375 -9.222656 7.027344 -8.945312 C 6.390625 -7.066406 5.789062 -5.152344 5.152344 -3.273438 C 5.03125 -2.914062 4.910156 -2.515625 4.75 -2.117188 C 4.710938 -1.957031 4.59375 -1.796875 4.433594 -1.636719 C 4.3125 -1.476562 4.152344 -1.359375 3.953125 -1.238281 Z M 13.257812 -9.863281 C 12.019531 -9.863281 10.941406 -9.863281 9.863281 -9.863281 C 9.742188 -9.863281 9.625 -9.863281 9.503906 -9.941406 C 9.421875 -9.984375 9.34375 -10.023438 9.382812 -10.101562 C 9.382812 -10.222656 9.382812 -10.382812 9.421875 -10.460938 C 9.863281 -11.378906 10.101562 -12.378906 10.34375 -13.335938 C 10.542969 -14.175781 10.78125 -15.015625 11.019531 -15.8125 C 11.378906 -16.851562 11.699219 -17.890625 12.097656 -18.886719 C 12.296875 -19.285156 12.339844 -19.726562 12.5 -20.164062 C 12.578125 -20.445312 12.65625 -20.722656 12.738281 -20.964844 C 12.777344 -21.164062 12.859375 -21.363281 12.9375 -21.523438 C 13.097656 -21.84375 13.175781 -22.121094 13.257812 -22.441406 C 13.375 -22.878906 13.457031 -23.320312 13.617188 -23.757812 C 13.617188 -23.796875 13.695312 -23.878906 13.777344 -23.917969 C 13.816406 -23.957031 13.894531 -23.957031 13.976562 -23.839844 C 14.015625 -23.757812 14.09375 -23.640625 14.136719 -23.519531 C 14.253906 -23.238281 14.375 -22.960938 14.453125 -22.640625 C 14.574219 -22.28125 14.65625 -21.921875 14.773438 -21.5625 C 14.894531 -21.125 15.054688 -20.644531 15.214844 -20.203125 C 15.414062 -19.726562 15.652344 -19.246094 15.890625 -18.765625 C 16.011719 -18.488281 16.171875 -18.167969 16.292969 -17.890625 C 16.371094 -17.6875 16.492188 -17.53125 16.570312 -17.328125 C 16.769531 -16.652344 17.128906 -16.011719 17.449219 -15.332031 C 17.648438 -14.8125 17.890625 -14.335938 18.128906 -13.777344 C 18.207031 -13.578125 18.289062 -13.335938 18.367188 -13.097656 C 18.566406 -12.339844 18.886719 -11.578125 19.207031 -10.859375 C 19.285156 -10.703125 19.367188 -10.582031 19.445312 -10.421875 C 19.484375 -10.300781 19.40625 -10.183594 19.285156 -10.140625 C 19.046875 -10.140625 18.808594 -10.140625 18.566406 -10.140625 C 18.046875 -10.140625 17.53125 -10.101562 17.011719 -10.023438 C 16.851562 -9.984375 16.691406 -9.984375 16.53125 -9.984375 C 15.375 -9.941406 14.253906 -9.863281 13.257812 -9.863281 Z M 13.257812 -9.863281 "/></g></g></g><g fill="rgb(0%, 0%, 0%)" fill-opacity="1"><g transform="translate(283.279671, 196.333587)"><g><path d="M 5.789062 -26.433594 C 6.546875 -26.433594 7.308594 -26.433594 8.105469 -26.433594 C 8.1875 -26.433594 8.265625 -26.433594 8.34375 -26.394531 C 8.746094 -26.273438 9.105469 -25.835938 9.105469 -25.394531 C 9.105469 -24.957031 9.105469 -24.515625 9.105469 -24.078125 C 9.105469 -23.480469 9.105469 -22.921875 9.144531 -22.359375 C 9.144531 -21.761719 9.144531 -21.164062 9.144531 -20.523438 C 9.144531 -16.332031 9.105469 -12.097656 9.105469 -7.90625 C 9.105469 -7.667969 9.105469 -7.425781 9.0625 -7.1875 C 9.023438 -6.789062 9.023438 -6.429688 9.023438 -6.070312 C 8.984375 -4.910156 8.945312 -3.714844 8.90625 -2.554688 C 8.90625 -2.4375 8.90625 -2.316406 8.863281 -2.195312 C 8.785156 -1.875 8.664062 -1.597656 8.34375 -1.398438 C 8.226562 -1.316406 8.066406 -1.238281 7.90625 -1.199219 C 7.625 -1.117188 7.308594 -1 6.988281 -0.917969 C 6.667969 -0.796875 6.390625 -0.71875 6.070312 -0.597656 C 5.949219 -0.558594 5.871094 -0.480469 5.789062 -0.359375 C 5.710938 -0.238281 5.789062 0 5.949219 0 C 6.070312 0.0390625 6.1875 0.078125 6.308594 0.078125 C 9.664062 0.0390625 13.015625 0.0390625 16.371094 0 C 16.492188 0 16.609375 0 16.730469 0 C 16.890625 -0.0390625 17.050781 -0.078125 17.210938 -0.121094 C 17.25 -0.160156 17.289062 -0.160156 17.328125 -0.199219 C 17.371094 -0.238281 17.410156 -0.320312 17.449219 -0.398438 C 17.488281 -0.4375 17.371094 -0.679688 17.289062 -0.679688 C 17.050781 -0.757812 16.8125 -0.839844 16.570312 -0.878906 C 16.132812 -0.957031 15.734375 -1.15625 15.332031 -1.316406 C 15.214844 -1.398438 15.132812 -1.4375 15.015625 -1.515625 C 14.855469 -1.675781 14.734375 -1.835938 14.734375 -2.035156 C 14.734375 -3.113281 14.695312 -4.152344 14.695312 -5.191406 C 14.773438 -7.585938 14.8125 -9.984375 14.773438 -12.378906 C 14.773438 -15.613281 14.773438 -18.847656 14.773438 -22.121094 C 14.773438 -22.679688 14.773438 -23.238281 14.8125 -23.796875 C 14.8125 -24.796875 14.8125 -24.796875 15.015625 -25.753906 C 15.054688 -25.996094 15.253906 -26.15625 15.492188 -26.234375 C 15.574219 -26.234375 15.652344 -26.273438 15.734375 -26.273438 C 15.851562 -26.273438 15.972656 -26.273438 16.09375 -26.273438 C 16.769531 -26.273438 17.488281 -26.234375 18.167969 -26.234375 C 18.367188 -26.234375 18.566406 -26.15625 18.765625 -26.113281 C 19.085938 -26.035156 19.367188 -25.914062 19.644531 -25.753906 C 19.765625 -25.714844 19.886719 -25.636719 19.964844 -25.59375 C 20.40625 -25.277344 20.765625 -24.875 21.042969 -24.398438 C 21.125 -24.199219 21.242188 -24 21.363281 -23.757812 C 21.601562 -23.359375 21.761719 -22.878906 21.882812 -22.402344 C 21.921875 -22.042969 22.042969 -21.722656 22.160156 -21.363281 C 22.160156 -21.324219 22.203125 -21.28125 22.242188 -21.28125 C 22.28125 -21.203125 22.359375 -21.164062 22.441406 -21.164062 C 22.480469 -21.125 22.519531 -21.125 22.5625 -21.125 C 22.839844 -21.125 23.039062 -21.28125 23.039062 -21.523438 C 23.078125 -22.121094 23 -22.679688 22.921875 -23.238281 C 22.878906 -23.597656 22.839844 -23.957031 22.839844 -24.316406 C 22.800781 -25.035156 22.761719 -25.796875 22.761719 -26.515625 C 22.71875 -26.753906 22.71875 -26.992188 22.71875 -27.234375 C 22.679688 -27.390625 22.640625 -27.550781 22.5625 -27.710938 C 22.480469 -27.832031 22.402344 -27.871094 22.28125 -27.910156 C 22.121094 -27.953125 21.960938 -27.953125 21.800781 -27.953125 C 21.164062 -27.992188 20.484375 -27.992188 19.84375 -27.992188 C 16.210938 -27.953125 12.578125 -27.953125 8.90625 -27.953125 C 6.988281 -27.953125 5.109375 -27.953125 3.195312 -27.910156 C 2.835938 -27.910156 2.476562 -27.910156 2.117188 -27.910156 C 1.957031 -27.871094 1.796875 -27.832031 1.636719 -27.75 C 1.515625 -27.671875 1.398438 -27.472656 1.398438 -27.351562 C 1.359375 -27.234375 1.359375 -27.113281 1.359375 -26.992188 C 1.316406 -26.515625 1.316406 -26.035156 1.238281 -25.515625 C 1.199219 -25.277344 1.199219 -25.035156 1.199219 -24.796875 C 1.15625 -24.359375 1.15625 -23.917969 1.117188 -23.480469 C 1.117188 -22.960938 1.117188 -22.402344 0.957031 -21.921875 C 0.917969 -21.761719 0.957031 -21.601562 1 -21.441406 C 1.117188 -21.125 1.4375 -21.042969 1.71875 -21.203125 C 1.757812 -21.203125 1.796875 -21.242188 1.796875 -21.28125 C 1.957031 -21.523438 2.078125 -21.800781 2.078125 -22.082031 C 2.15625 -22.679688 2.394531 -23.238281 2.675781 -23.796875 C 2.835938 -24.078125 2.996094 -24.359375 3.15625 -24.636719 C 3.3125 -24.875 3.472656 -25.078125 3.671875 -25.277344 C 3.875 -25.4375 4.03125 -25.59375 4.234375 -25.753906 C 4.511719 -25.996094 4.832031 -26.195312 5.191406 -26.273438 C 5.390625 -26.3125 5.589844 -26.394531 5.789062 -26.433594 Z M 5.789062 -26.433594 "/></g></g></g><g fill="rgb(0%, 0%, 0%)" fill-opacity="1"><g transform="translate(307.237912, 196.333587)"><g><path d="M 6.867188 -21.921875 C 6.867188 -23.160156 6.867188 -23.160156 7.226562 -24.238281 C 7.308594 -24.4375 7.347656 -24.636719 7.425781 -24.835938 C 7.707031 -25.394531 8.105469 -25.835938 8.625 -26.15625 C 8.664062 -26.195312 8.703125 -26.195312 8.746094 -26.234375 C 9.222656 -26.394531 9.664062 -26.554688 10.140625 -26.515625 C 10.742188 -26.515625 11.300781 -26.515625 11.859375 -26.515625 C 12.019531 -26.515625 12.179688 -26.515625 12.339844 -26.472656 C 12.738281 -26.355469 13.136719 -26.273438 13.496094 -26.113281 C 14.535156 -25.636719 15.332031 -24.917969 15.890625 -23.917969 C 16.011719 -23.679688 16.132812 -23.4375 16.292969 -23.199219 C 16.53125 -22.761719 16.652344 -22.28125 16.769531 -21.800781 C 16.8125 -21.324219 17.050781 -20.882812 17.128906 -20.40625 C 17.128906 -20.363281 17.171875 -20.324219 17.210938 -20.285156 C 17.25 -20.203125 17.371094 -20.164062 17.488281 -20.125 C 17.570312 -20.125 17.769531 -20.246094 17.769531 -20.324219 C 17.847656 -20.722656 17.96875 -21.125 17.96875 -21.523438 C 18.007812 -22.441406 18.007812 -23.398438 17.929688 -24.316406 C 17.847656 -24.796875 17.847656 -25.277344 17.808594 -25.753906 C 17.808594 -25.914062 17.808594 -26.074219 17.769531 -26.234375 C 17.730469 -26.355469 17.648438 -26.472656 17.570312 -26.554688 C 17.488281 -26.59375 17.449219 -26.671875 17.371094 -26.714844 C 17.050781 -26.875 16.730469 -27.03125 16.371094 -27.191406 C 16.011719 -27.3125 15.613281 -27.433594 15.214844 -27.550781 C 14.933594 -27.632812 14.613281 -27.710938 14.296875 -27.710938 C 13.976562 -27.75 13.695312 -27.75 13.417969 -27.792969 C 13.015625 -27.871094 12.617188 -27.871094 12.21875 -27.871094 C 11.5 -27.871094 10.742188 -27.871094 10.023438 -27.871094 C 9.582031 -27.871094 9.144531 -27.832031 8.703125 -27.792969 C 8.304688 -27.710938 7.90625 -27.671875 7.507812 -27.550781 C 7.386719 -27.472656 7.265625 -27.472656 7.148438 -27.472656 C 6.707031 -27.390625 6.308594 -27.234375 5.871094 -27.191406 C 5.628906 -27.152344 5.390625 -27.03125 5.191406 -26.914062 C 4.910156 -26.753906 4.671875 -26.632812 4.472656 -26.433594 C 4.3125 -26.234375 4.113281 -26.074219 3.953125 -25.914062 C 3.792969 -25.714844 3.632812 -25.554688 3.472656 -25.355469 C 3.195312 -24.957031 2.914062 -24.558594 2.675781 -24.15625 C 2.59375 -24.039062 2.515625 -23.957031 2.476562 -23.839844 C 2.394531 -23.519531 2.234375 -23.238281 2.195312 -22.921875 C 2.078125 -22.359375 1.957031 -21.800781 1.875 -21.242188 C 1.757812 -20.683594 1.757812 -20.125 1.796875 -19.566406 C 1.917969 -19.167969 1.917969 -18.765625 1.957031 -18.367188 C 1.957031 -18.25 1.996094 -18.089844 2.035156 -18.007812 C 2.195312 -17.410156 2.394531 -16.8125 2.714844 -16.292969 C 2.875 -16.011719 3.074219 -15.691406 3.273438 -15.375 C 3.753906 -14.613281 4.351562 -13.9375 5.109375 -13.457031 C 5.191406 -13.375 5.3125 -13.296875 5.390625 -13.21875 C 5.671875 -12.976562 5.949219 -12.777344 6.308594 -12.617188 C 6.429688 -12.539062 6.589844 -12.457031 6.707031 -12.378906 C 7.746094 -11.699219 8.785156 -11.101562 9.902344 -10.582031 C 10.34375 -10.382812 10.742188 -10.140625 11.140625 -9.863281 C 11.9375 -9.34375 12.617188 -8.703125 13.257812 -8.027344 C 13.617188 -7.625 13.855469 -7.1875 13.9375 -6.628906 C 13.976562 -6.46875 14.015625 -6.308594 14.054688 -6.148438 C 14.136719 -5.75 14.136719 -5.351562 14.09375 -4.953125 C 14.09375 -4.910156 14.09375 -4.871094 14.09375 -4.832031 C 13.9375 -4.433594 13.816406 -3.992188 13.65625 -3.554688 C 13.417969 -3.035156 13.058594 -2.59375 12.578125 -2.277344 C 12.417969 -2.117188 12.257812 -2.078125 12.058594 -1.957031 C 11.539062 -1.835938 11.0625 -1.71875 10.5 -1.71875 C 9.863281 -1.71875 9.222656 -1.71875 8.585938 -1.71875 C 8.464844 -1.71875 8.304688 -1.71875 8.1875 -1.71875 C 7.746094 -1.835938 7.226562 -1.875 6.789062 -2.035156 C 6.507812 -2.117188 6.230469 -2.234375 5.988281 -2.394531 C 5.871094 -2.476562 5.710938 -2.554688 5.589844 -2.636719 C 5.191406 -2.835938 4.832031 -3.113281 4.511719 -3.433594 C 4.390625 -3.554688 4.234375 -3.714844 4.074219 -3.832031 C 3.59375 -4.351562 3.195312 -4.910156 2.875 -5.511719 C 2.675781 -5.828125 2.515625 -6.148438 2.4375 -6.507812 C 2.316406 -6.867188 2.195312 -7.1875 2.117188 -7.546875 C 2.117188 -7.667969 2.035156 -7.785156 1.957031 -7.867188 C 1.917969 -7.945312 1.71875 -8.027344 1.636719 -7.984375 C 1.597656 -7.90625 1.515625 -7.867188 1.476562 -7.785156 C 1.4375 -7.746094 1.4375 -7.667969 1.4375 -7.585938 C 1.476562 -7.066406 1.476562 -6.589844 1.597656 -6.109375 C 1.636719 -5.910156 1.636719 -5.710938 1.675781 -5.511719 C 1.71875 -4.710938 1.71875 -3.914062 1.875 -3.113281 C 1.917969 -2.914062 1.917969 -2.714844 1.917969 -2.476562 C 1.917969 -2.277344 1.957031 -2.078125 1.957031 -1.875 C 1.996094 -1.636719 2.078125 -1.398438 2.195312 -1.199219 C 2.234375 -1.078125 2.316406 -1 2.4375 -0.957031 C 2.996094 -0.71875 3.554688 -0.4375 4.152344 -0.320312 C 4.671875 -0.199219 5.191406 -0.0390625 5.710938 0 C 6.109375 0.0390625 6.507812 0.078125 6.90625 0.078125 C 8.464844 0.078125 9.984375 0.0390625 11.539062 0.0390625 C 11.738281 0.0390625 11.9375 0 12.140625 -0.0390625 C 12.457031 -0.078125 12.777344 -0.199219 13.097656 -0.199219 C 13.417969 -0.238281 13.695312 -0.398438 14.015625 -0.4375 C 15.054688 -0.640625 15.933594 -1.078125 16.652344 -1.875 C 16.691406 -1.917969 16.769531 -1.996094 16.8125 -2.035156 C 17.171875 -2.394531 17.488281 -2.753906 17.769531 -3.15625 C 17.890625 -3.3125 18.007812 -3.472656 18.128906 -3.632812 C 18.328125 -3.914062 18.527344 -4.234375 18.6875 -4.550781 C 18.96875 -5.070312 19.167969 -5.589844 19.367188 -6.109375 C 19.40625 -6.230469 19.445312 -6.347656 19.484375 -6.46875 C 19.644531 -7.226562 19.644531 -7.226562 19.644531 -8.027344 C 19.644531 -8.265625 19.644531 -8.503906 19.644531 -8.746094 C 19.605469 -8.90625 19.566406 -9.0625 19.527344 -9.222656 C 19.285156 -10.101562 18.96875 -10.941406 18.566406 -11.738281 C 18.367188 -12.097656 18.128906 -12.417969 17.847656 -12.699219 C 17.449219 -13.136719 17.011719 -13.578125 16.53125 -13.9375 C 15.652344 -14.613281 14.8125 -15.292969 13.894531 -15.890625 C 13.097656 -16.371094 12.339844 -16.929688 11.539062 -17.410156 C 10.980469 -17.730469 10.460938 -18.128906 9.902344 -18.488281 C 9.625 -18.6875 9.34375 -18.96875 9.0625 -19.167969 C 8.90625 -19.328125 8.746094 -19.445312 8.625 -19.566406 C 8.1875 -19.886719 7.828125 -20.285156 7.507812 -20.683594 C 7.308594 -20.921875 7.148438 -21.164062 7.066406 -21.402344 C 7.027344 -21.5625 6.949219 -21.722656 6.867188 -21.921875 Z M 6.867188 -21.921875 "/></g></g></g></svg>